<?xml version="1.0" encoding="UTF-8"?>
<svg xmlns="http://www.w3.org/2000/svg" xmlns:xlink="http://www.w3.org/1999/xlink" width="32px" height="32px" viewBox="0 0 32 32" version="1.1">
<g id="surface1">
<path style=" stroke:none;fill-rule:evenodd;fill:rgb(98.823529%,93.333334%,19.215687%);fill-opacity:1;" d="M 9.535156 16.980469 L 9.324219 17.070312 L 9.335938 17.257812 C 9.339844 17.359375 9.351562 17.507812 9.359375 17.585938 C 9.371094 17.664062 9.378906 18.203125 9.382812 18.78125 C 9.386719 19.359375 9.398438 20.003906 9.40625 20.210938 C 9.414062 20.417969 9.429688 20.742188 9.4375 20.9375 C 9.457031 21.347656 9.484375 22.179688 9.492188 22.703125 C 9.5 22.90625 9.503906 23.085938 9.507812 23.105469 C 9.511719 23.128906 9.601562 23.195312 9.785156 23.316406 C 10.03125 23.480469 10.289062 23.675781 10.757812 24.046875 C 10.96875 24.214844 11.382812 24.527344 11.726562 24.78125 C 12.292969 25.195312 12.597656 25.421875 12.90625 25.65625 C 13.269531 25.933594 13.433594 26.050781 13.472656 26.066406 C 13.488281 26.074219 13.511719 26.105469 13.527344 26.136719 C 13.550781 26.191406 13.554688 26.335938 13.5625 27.8125 C 13.570312 28.703125 13.578125 29.441406 13.582031 29.453125 C 13.585938 29.464844 13.601562 29.839844 13.609375 30.28125 C 13.621094 30.722656 13.628906 31.089844 13.632812 31.089844 C 13.636719 31.09375 13.71875 31.035156 13.816406 30.957031 C 14.261719 30.601562 16.941406 28.710938 17.9375 28.046875 C 18.609375 27.601562 19.050781 27.320312 19.691406 26.9375 C 20.320312 26.558594 20.304688 26.566406 20.546875 26.429688 C 20.664062 26.363281 20.929688 26.203125 21.140625 26.078125 C 21.480469 25.875 21.660156 25.761719 22.089844 25.488281 C 22.152344 25.445312 22.207031 25.40625 22.210938 25.394531 C 22.214844 25.386719 22.132812 25.304688 22.035156 25.214844 C 21.886719 25.085938 21.691406 24.910156 21.320312 24.570312 C 21.105469 24.375 20.585938 23.898438 20.304688 23.632812 C 20.089844 23.433594 19.542969 22.929688 19.390625 22.796875 C 18.878906 22.335938 18.613281 22.09375 18.496094 21.972656 C 18.421875 21.894531 18.316406 21.792969 18.261719 21.746094 C 18.152344 21.652344 18.113281 21.570312 18.136719 21.488281 C 18.179688 21.300781 18.445312 20.886719 18.902344 20.273438 C 19.28125 19.769531 19.628906 19.347656 20.355469 18.507812 C 21.34375 17.359375 21.726562 16.90625 21.710938 16.894531 C 21.703125 16.886719 21.570312 16.933594 21.539062 16.953125 C 21.53125 16.960938 21.453125 16.992188 21.367188 17.023438 C 21.28125 17.054688 21.191406 17.089844 21.164062 17.101562 C 21.136719 17.113281 21.027344 17.15625 20.914062 17.195312 C 20.132812 17.476562 19.339844 17.703125 18.632812 17.84375 C 18.375 17.894531 18.328125 17.902344 18.171875 17.929688 C 18.089844 17.941406 17.984375 17.960938 17.9375 17.96875 C 17.859375 17.980469 17.667969 18.007812 17.34375 18.046875 C 16.914062 18.097656 16.566406 18.113281 15.875 18.117188 C 15.15625 18.117188 15.027344 18.109375 14.375 18.046875 C 13.882812 17.996094 13.632812 17.964844 13.09375 17.882812 C 12.636719 17.816406 12.210938 17.738281 11.804688 17.65625 C 11.339844 17.558594 10.667969 17.351562 10.3125 17.191406 C 10.167969 17.128906 9.917969 16.996094 9.839844 16.945312 C 9.796875 16.914062 9.753906 16.890625 9.75 16.890625 C 9.746094 16.894531 9.648438 16.933594 9.535156 16.980469 "/>
<path style=" stroke:none;fill-rule:evenodd;fill:rgb(1.960784%,1.960784%,1.960784%);fill-opacity:1;" d="M 15.117188 0.078125 C 15.03125 0.0859375 14.855469 0.101562 14.726562 0.109375 C 14.433594 0.132812 14.105469 0.171875 13.875 0.21875 C 13.6875 0.253906 13.550781 0.28125 13.492188 0.296875 C 13.347656 0.332031 13.207031 0.363281 13.160156 0.371094 C 13.132812 0.375 13.105469 0.382812 13.101562 0.390625 C 13.097656 0.398438 13.074219 0.40625 13.054688 0.40625 C 13.015625 0.40625 12.867188 0.445312 12.824219 0.46875 C 12.808594 0.476562 12.789062 0.484375 12.777344 0.484375 C 12.753906 0.484375 12.617188 0.523438 12.554688 0.546875 C 12.539062 0.554688 12.429688 0.589844 12.3125 0.625 C 12.195312 0.664062 12.089844 0.699219 12.078125 0.703125 C 12.066406 0.710938 11.972656 0.746094 11.875 0.78125 C 11.777344 0.820312 11.6875 0.855469 11.679688 0.863281 C 11.671875 0.867188 11.65625 0.875 11.644531 0.875 C 11.636719 0.875 11.578125 0.898438 11.519531 0.921875 C 11.460938 0.949219 11.386719 0.984375 11.351562 1 C 11.242188 1.050781 10.851562 1.242188 10.84375 1.25 C 10.839844 1.253906 10.804688 1.273438 10.765625 1.292969 C 10.6875 1.328125 10.574219 1.394531 10.5625 1.40625 C 10.558594 1.410156 10.53125 1.425781 10.5 1.445312 C 10.46875 1.460938 10.441406 1.476562 10.4375 1.484375 C 10.433594 1.488281 10.402344 1.507812 10.371094 1.523438 C 10.339844 1.539062 10.3125 1.558594 10.3125 1.566406 C 10.3125 1.574219 10.304688 1.578125 10.296875 1.578125 C 10.28125 1.578125 10.089844 1.707031 10.082031 1.722656 C 10.078125 1.730469 10.066406 1.734375 10.054688 1.734375 C 10.042969 1.734375 10.03125 1.742188 10.03125 1.75 C 10.03125 1.757812 10.019531 1.769531 10.003906 1.773438 C 9.988281 1.777344 9.960938 1.792969 9.945312 1.808594 C 9.925781 1.824219 9.824219 1.902344 9.71875 1.984375 C 9.609375 2.066406 9.519531 2.136719 9.515625 2.140625 C 9.511719 2.144531 9.453125 2.195312 9.390625 2.25 C 9.140625 2.460938 8.78125 2.800781 8.609375 2.992188 C 8.480469 3.136719 8.351562 3.285156 8.277344 3.382812 C 8.234375 3.433594 8.191406 3.488281 8.175781 3.507812 C 8.164062 3.523438 8.113281 3.589844 8.070312 3.65625 C 8.023438 3.71875 7.980469 3.78125 7.972656 3.789062 C 7.964844 3.796875 7.890625 3.914062 7.808594 4.050781 C 7.664062 4.28125 7.457031 4.667969 7.378906 4.859375 C 7.355469 4.90625 7.332031 4.96875 7.316406 5 C 7.304688 5.03125 7.289062 5.070312 7.28125 5.085938 C 7.273438 5.101562 7.257812 5.152344 7.242188 5.195312 C 7.226562 5.238281 7.210938 5.289062 7.203125 5.304688 C 7.140625 5.457031 7.0625 5.765625 7.03125 5.984375 C 6.980469 6.359375 6.972656 6.5 7.007812 6.800781 C 7.027344 6.996094 7.042969 7.066406 7.09375 7.285156 C 7.105469 7.328125 7.109375 7.367188 7.105469 7.371094 C 7.097656 7.375 7.046875 7.382812 6.988281 7.390625 C 6.757812 7.421875 6.644531 7.4375 6.53125 7.457031 C 6.335938 7.496094 6.089844 7.546875 6.039062 7.5625 C 6.011719 7.570312 5.945312 7.589844 5.890625 7.601562 C 5.835938 7.617188 5.769531 7.632812 5.742188 7.640625 C 5.714844 7.648438 5.601562 7.683594 5.484375 7.71875 C 5.265625 7.785156 5.0625 7.851562 5.007812 7.875 C 4.992188 7.882812 4.957031 7.894531 4.929688 7.902344 C 4.847656 7.929688 4.617188 8.015625 4.585938 8.03125 C 4.570312 8.039062 4.457031 8.085938 4.335938 8.132812 C 3.988281 8.273438 3.488281 8.511719 3.234375 8.65625 C 2.800781 8.90625 2.53125 9.089844 2.203125 9.375 C 1.988281 9.558594 1.570312 10.003906 1.453125 10.171875 C 1.433594 10.203125 1.410156 10.230469 1.40625 10.234375 C 1.351562 10.285156 1.09375 10.675781 0.933594 10.953125 C 0.832031 11.128906 0.546875 11.710938 0.546875 11.746094 C 0.546875 11.75 0.535156 11.773438 0.523438 11.800781 C 0.476562 11.90625 0.328125 12.332031 0.328125 12.371094 C 0.328125 12.382812 0.320312 12.402344 0.3125 12.417969 C 0.296875 12.445312 0.246094 12.636719 0.207031 12.820312 C 0.0703125 13.464844 0.0429688 14.097656 0.128906 14.65625 C 0.160156 14.851562 0.242188 15.152344 0.3125 15.320312 C 0.355469 15.433594 0.441406 15.605469 0.503906 15.71875 C 0.542969 15.789062 0.578125 15.855469 0.578125 15.863281 C 0.578125 15.867188 0.582031 15.875 0.589844 15.875 C 0.597656 15.875 0.617188 15.898438 0.632812 15.929688 C 0.648438 15.960938 0.667969 15.984375 0.675781 15.984375 C 0.679688 15.984375 0.6875 15.996094 0.6875 16.007812 C 0.6875 16.019531 0.695312 16.039062 0.707031 16.050781 C 0.71875 16.0625 0.75 16.101562 0.78125 16.140625 C 0.808594 16.179688 0.839844 16.214844 0.847656 16.214844 C 0.855469 16.21875 0.859375 16.226562 0.859375 16.238281 C 0.859375 16.246094 0.867188 16.261719 0.878906 16.273438 C 0.890625 16.28125 0.941406 16.339844 0.992188 16.398438 C 1.210938 16.648438 1.511719 16.917969 1.765625 17.085938 C 1.832031 17.128906 1.886719 17.167969 1.890625 17.171875 C 1.902344 17.183594 2.03125 17.265625 2.035156 17.265625 C 2.039062 17.265625 2.101562 17.300781 2.171875 17.339844 C 2.464844 17.507812 2.816406 17.65625 3.171875 17.765625 C 3.414062 17.835938 3.417969 17.839844 3.546875 17.867188 C 3.609375 17.878906 3.6875 17.898438 3.71875 17.90625 C 3.765625 17.917969 3.871094 17.933594 4.21875 17.984375 C 4.6875 18.050781 5.488281 18.042969 6.125 17.960938 C 6.414062 17.925781 6.652344 17.886719 6.78125 17.859375 C 6.851562 17.84375 7.113281 17.789062 7.226562 17.765625 C 7.3125 17.746094 7.71875 17.644531 7.765625 17.625 C 7.789062 17.617188 7.851562 17.601562 7.90625 17.585938 C 7.960938 17.570312 8.019531 17.554688 8.035156 17.546875 C 8.050781 17.539062 8.070312 17.53125 8.082031 17.53125 C 8.105469 17.53125 8.460938 17.417969 8.523438 17.390625 C 8.628906 17.347656 8.890625 17.265625 8.90625 17.273438 C 8.960938 17.304688 8.988281 17.757812 9.003906 18.882812 C 9.011719 19.449219 9.019531 19.972656 9.023438 20.046875 C 9.042969 20.425781 9.082031 21.042969 9.09375 21.195312 C 9.101562 21.289062 9.117188 21.511719 9.125 21.6875 C 9.160156 22.316406 9.230469 23.09375 9.265625 23.222656 C 9.285156 23.296875 9.28125 23.292969 9.46875 23.429688 C 9.550781 23.488281 9.621094 23.542969 9.625 23.546875 C 9.628906 23.550781 9.71875 23.621094 9.828125 23.703125 C 9.9375 23.785156 10.03125 23.855469 10.039062 23.867188 C 10.050781 23.875 10.082031 23.902344 10.117188 23.929688 C 10.148438 23.957031 10.207031 24 10.242188 24.03125 C 10.277344 24.0625 10.320312 24.097656 10.335938 24.109375 C 10.480469 24.226562 10.632812 24.351562 10.640625 24.359375 C 10.644531 24.363281 10.679688 24.390625 10.71875 24.421875 C 10.757812 24.453125 10.792969 24.480469 10.796875 24.484375 C 10.800781 24.488281 10.855469 24.53125 10.914062 24.578125 C 10.972656 24.625 11.027344 24.667969 11.03125 24.671875 C 11.039062 24.679688 11.105469 24.730469 11.335938 24.914062 C 11.371094 24.941406 11.425781 24.984375 11.460938 25.011719 C 11.535156 25.074219 11.550781 25.085938 11.640625 25.15625 C 11.679688 25.1875 11.714844 25.214844 11.71875 25.21875 C 11.722656 25.222656 11.789062 25.277344 11.867188 25.335938 C 11.945312 25.394531 12.011719 25.449219 12.015625 25.453125 C 12.019531 25.457031 12.0625 25.492188 12.109375 25.527344 C 12.265625 25.644531 12.605469 25.914062 12.734375 26.023438 C 12.773438 26.058594 12.847656 26.121094 12.898438 26.164062 C 13.035156 26.28125 13.171875 26.410156 13.171875 26.429688 C 13.171875 26.4375 13.191406 26.480469 13.210938 26.523438 C 13.234375 26.5625 13.25 26.605469 13.25 26.617188 C 13.25 26.625 13.261719 26.652344 13.277344 26.679688 C 13.296875 26.71875 13.300781 26.773438 13.296875 26.992188 C 13.296875 27.136719 13.289062 27.347656 13.277344 27.460938 C 13.257812 27.726562 13.257812 29.800781 13.28125 30 C 13.289062 30.082031 13.296875 30.480469 13.296875 30.890625 C 13.296875 31.539062 13.300781 31.644531 13.324219 31.710938 C 13.371094 31.855469 13.414062 31.882812 13.550781 31.851562 C 13.625 31.835938 13.695312 31.804688 13.792969 31.746094 C 13.867188 31.699219 13.941406 31.65625 13.953125 31.652344 C 13.992188 31.632812 14.515625 31.289062 14.570312 31.246094 C 14.640625 31.191406 14.710938 31.140625 14.914062 30.992188 C 15.042969 30.898438 15.152344 30.816406 15.15625 30.8125 C 15.160156 30.808594 15.207031 30.773438 15.257812 30.734375 C 15.308594 30.699219 15.355469 30.664062 15.359375 30.65625 C 15.363281 30.652344 15.410156 30.617188 15.460938 30.578125 C 15.511719 30.542969 15.558594 30.507812 15.5625 30.5 C 15.566406 30.496094 15.613281 30.460938 15.664062 30.421875 C 15.714844 30.386719 15.761719 30.351562 15.765625 30.34375 C 15.769531 30.339844 15.816406 30.304688 15.867188 30.265625 C 15.917969 30.230469 15.964844 30.195312 15.96875 30.1875 C 15.972656 30.183594 16.019531 30.148438 16.070312 30.109375 C 16.121094 30.070312 16.175781 30.03125 16.1875 30.019531 C 16.214844 30 16.660156 29.660156 16.796875 29.558594 C 16.84375 29.519531 16.886719 29.488281 16.890625 29.484375 C 16.894531 29.480469 16.941406 29.445312 16.992188 29.40625 C 17.042969 29.367188 17.089844 29.332031 17.09375 29.328125 C 17.097656 29.324219 17.144531 29.289062 17.195312 29.25 C 17.246094 29.214844 17.292969 29.175781 17.296875 29.171875 C 17.300781 29.167969 17.371094 29.113281 17.453125 29.054688 C 17.535156 28.996094 17.605469 28.941406 17.609375 28.9375 C 17.613281 28.933594 17.683594 28.878906 17.765625 28.820312 C 17.847656 28.761719 17.917969 28.707031 17.921875 28.703125 C 17.929688 28.695312 18.449219 28.3125 18.519531 28.265625 C 18.566406 28.234375 18.769531 28.089844 18.789062 28.074219 C 18.804688 28.0625 19.425781 27.625 19.652344 27.46875 C 19.71875 27.421875 19.921875 27.285156 20.101562 27.164062 C 20.632812 26.804688 20.804688 26.691406 20.820312 26.675781 C 20.828125 26.667969 20.925781 26.601562 21.039062 26.527344 C 21.152344 26.453125 21.296875 26.351562 21.367188 26.304688 C 21.4375 26.257812 21.519531 26.199219 21.554688 26.175781 C 21.589844 26.15625 21.621094 26.132812 21.625 26.125 C 21.628906 26.121094 21.730469 26.042969 21.851562 25.957031 C 22.0625 25.804688 22.441406 25.59375 22.5 25.59375 C 22.53125 25.59375 22.578125 25.546875 22.578125 25.511719 C 22.578125 25.472656 22.492188 25.355469 22.359375 25.210938 C 22.160156 25 21.546875 24.390625 21.054688 23.914062 C 20.816406 23.683594 20.5625 23.4375 20.492188 23.367188 C 20.050781 22.9375 19.851562 22.746094 19.625 22.53125 C 19.328125 22.25 18.796875 21.722656 18.71875 21.632812 C 18.621094 21.519531 18.53125 21.390625 18.53125 21.367188 C 18.53125 21.355469 18.539062 21.332031 18.546875 21.324219 C 18.554688 21.3125 18.597656 21.257812 18.636719 21.203125 C 18.675781 21.148438 18.714844 21.097656 18.71875 21.09375 C 18.722656 21.089844 18.757812 21.042969 18.796875 20.992188 C 18.835938 20.941406 18.878906 20.886719 18.894531 20.867188 C 18.90625 20.851562 18.953125 20.789062 19 20.734375 C 19.042969 20.679688 19.085938 20.621094 19.097656 20.609375 C 19.109375 20.597656 19.140625 20.554688 19.171875 20.515625 C 19.203125 20.476562 19.234375 20.4375 19.242188 20.429688 C 19.25 20.417969 19.273438 20.390625 19.296875 20.359375 C 19.320312 20.332031 19.347656 20.296875 19.359375 20.285156 C 19.375 20.269531 19.429688 20.203125 19.484375 20.132812 C 19.582031 20.015625 19.644531 19.941406 19.679688 19.898438 C 19.6875 19.890625 19.75 19.816406 19.820312 19.734375 C 19.890625 19.652344 19.949219 19.582031 19.953125 19.578125 C 19.957031 19.574219 20.003906 19.519531 20.054688 19.460938 C 20.105469 19.402344 20.15625 19.34375 20.164062 19.335938 C 20.175781 19.328125 20.21875 19.273438 20.265625 19.21875 C 20.3125 19.164062 20.367188 19.105469 20.382812 19.085938 C 20.402344 19.070312 20.464844 19 20.523438 18.929688 C 20.582031 18.859375 20.636719 18.800781 20.640625 18.796875 C 20.644531 18.792969 20.675781 18.757812 20.710938 18.71875 C 20.929688 18.46875 20.984375 18.40625 21.039062 18.34375 C 21.074219 18.304688 21.140625 18.226562 21.1875 18.171875 C 21.234375 18.117188 21.277344 18.066406 21.28125 18.0625 C 21.285156 18.058594 21.347656 17.984375 21.421875 17.898438 C 21.496094 17.8125 21.558594 17.738281 21.5625 17.734375 C 21.566406 17.730469 21.601562 17.6875 21.640625 17.640625 C 21.679688 17.59375 21.714844 17.550781 21.71875 17.546875 C 21.722656 17.542969 21.761719 17.496094 21.804688 17.445312 C 21.847656 17.394531 21.886719 17.347656 21.890625 17.34375 C 21.894531 17.339844 21.925781 17.300781 21.957031 17.261719 C 21.992188 17.222656 22.027344 17.179688 22.035156 17.167969 C 22.050781 17.152344 22.132812 17.046875 22.15625 17.011719 C 22.164062 17.003906 22.261719 17.03125 22.375 17.070312 C 22.59375 17.140625 23.265625 17.3125 23.324219 17.3125 C 23.34375 17.3125 23.375 17.320312 23.394531 17.328125 C 23.414062 17.335938 23.496094 17.351562 23.578125 17.367188 C 23.660156 17.378906 23.757812 17.398438 23.796875 17.40625 C 23.894531 17.425781 24.289062 17.484375 24.53125 17.515625 C 25.003906 17.574219 25.878906 17.574219 26.28125 17.515625 C 26.335938 17.507812 26.46875 17.488281 26.570312 17.476562 C 26.671875 17.460938 26.78125 17.445312 26.8125 17.4375 C 26.84375 17.429688 26.925781 17.414062 27 17.398438 C 27.074219 17.382812 27.152344 17.367188 27.179688 17.359375 C 27.207031 17.351562 27.277344 17.335938 27.335938 17.320312 C 27.394531 17.304688 27.460938 17.289062 27.484375 17.28125 C 27.507812 17.273438 27.570312 17.257812 27.625 17.242188 C 27.679688 17.226562 27.742188 17.210938 27.757812 17.203125 C 27.773438 17.195312 27.882812 17.160156 28 17.125 C 28.117188 17.085938 28.222656 17.050781 28.234375 17.046875 C 28.246094 17.039062 28.289062 17.023438 28.328125 17.007812 C 28.410156 16.976562 28.421875 16.972656 28.585938 16.90625 C 28.65625 16.878906 28.753906 16.835938 28.804688 16.8125 C 28.855469 16.789062 28.933594 16.753906 28.976562 16.734375 C 29.066406 16.695312 29.390625 16.535156 29.46875 16.488281 C 29.5 16.472656 29.566406 16.433594 29.617188 16.40625 C 30.167969 16.101562 30.695312 15.6875 30.996094 15.324219 C 31.046875 15.261719 31.105469 15.191406 31.128906 15.167969 C 31.152344 15.140625 31.171875 15.109375 31.171875 15.097656 C 31.171875 15.085938 31.179688 15.078125 31.183594 15.078125 C 31.191406 15.078125 31.210938 15.054688 31.226562 15.023438 C 31.242188 14.992188 31.261719 14.96875 31.265625 14.96875 C 31.273438 14.96875 31.28125 14.957031 31.285156 14.941406 C 31.296875 14.910156 31.328125 14.863281 31.355469 14.832031 C 31.367188 14.820312 31.375 14.800781 31.375 14.789062 C 31.375 14.777344 31.378906 14.765625 31.386719 14.761719 C 31.414062 14.75 31.628906 14.316406 31.671875 14.179688 C 31.683594 14.144531 31.699219 14.109375 31.703125 14.101562 C 31.710938 14.09375 31.71875 14.0625 31.726562 14.03125 C 31.734375 14.003906 31.742188 13.96875 31.75 13.953125 C 31.769531 13.914062 31.8125 13.765625 31.8125 13.734375 C 31.8125 13.71875 31.820312 13.6875 31.828125 13.667969 C 31.84375 13.628906 31.878906 13.414062 31.90625 13.203125 C 31.925781 13.03125 31.925781 12.503906 31.90625 12.328125 C 31.875 12.070312 31.8125 11.726562 31.765625 11.570312 C 31.757812 11.535156 31.742188 11.480469 31.734375 11.445312 C 31.667969 11.179688 31.441406 10.65625 31.25 10.320312 C 31.179688 10.199219 31.019531 9.949219 30.980469 9.898438 C 30.972656 9.890625 30.925781 9.828125 30.875 9.761719 C 30.613281 9.414062 30.21875 9.003906 29.945312 8.792969 C 29.917969 8.773438 29.894531 8.753906 29.890625 8.75 C 29.886719 8.746094 29.839844 8.707031 29.789062 8.671875 C 29.738281 8.632812 29.6875 8.59375 29.675781 8.582031 C 29.640625 8.546875 29.167969 8.242188 29.070312 8.1875 C 29.019531 8.160156 28.953125 8.121094 28.921875 8.101562 C 28.863281 8.066406 28.359375 7.816406 28.257812 7.773438 C 28.195312 7.75 28.183594 7.742188 28.078125 7.699219 C 28.046875 7.6875 28 7.667969 27.96875 7.65625 C 27.9375 7.644531 27.898438 7.632812 27.882812 7.625 C 27.839844 7.605469 27.496094 7.492188 27.367188 7.457031 C 27.167969 7.398438 26.789062 7.3125 26.570312 7.273438 C 26.132812 7.203125 25.972656 7.1875 25.609375 7.1875 C 25.179688 7.1875 24.929688 7.21875 24.480469 7.332031 C 24.429688 7.34375 24.386719 7.351562 24.386719 7.34375 C 24.382812 7.339844 24.390625 7.285156 24.398438 7.226562 C 24.425781 7.074219 24.460938 6.632812 24.460938 6.4375 C 24.457031 6.128906 24.417969 5.71875 24.375 5.53125 C 24.367188 5.5 24.351562 5.421875 24.335938 5.359375 C 24.320312 5.296875 24.304688 5.222656 24.296875 5.195312 C 24.289062 5.167969 24.269531 5.101562 24.25 5.046875 C 24.222656 4.953125 24.148438 4.742188 24.101562 4.632812 C 24.089844 4.605469 24.070312 4.5625 24.058594 4.53125 C 24.011719 4.410156 23.796875 3.996094 23.695312 3.835938 C 23.523438 3.5625 23.160156 3.070312 22.960938 2.851562 C 22.953125 2.839844 22.890625 2.769531 22.824219 2.695312 C 22.6875 2.539062 22.332031 2.183594 22.203125 2.078125 C 22.160156 2.039062 22.113281 2 22.101562 1.992188 C 22.09375 1.984375 22.058594 1.953125 22.023438 1.929688 C 21.988281 1.902344 21.945312 1.871094 21.929688 1.855469 C 21.914062 1.839844 21.847656 1.792969 21.789062 1.753906 C 21.730469 1.710938 21.675781 1.675781 21.671875 1.671875 C 21.660156 1.652344 21.214844 1.382812 21.09375 1.3125 C 20.878906 1.195312 20.433594 0.980469 20.25 0.90625 C 20.203125 0.886719 20.125 0.855469 20.082031 0.835938 C 20.035156 0.8125 19.988281 0.796875 19.980469 0.796875 C 19.96875 0.796875 19.953125 0.792969 19.945312 0.785156 C 19.9375 0.777344 19.890625 0.757812 19.84375 0.742188 C 19.796875 0.730469 19.742188 0.710938 19.726562 0.703125 C 19.636719 0.664062 19.0625 0.484375 19.027344 0.484375 C 19.011719 0.484375 18.988281 0.476562 18.972656 0.46875 C 18.957031 0.460938 18.898438 0.445312 18.84375 0.433594 C 18.597656 0.375 18.46875 0.34375 18.382812 0.328125 C 18.332031 0.316406 18.261719 0.304688 18.226562 0.296875 C 18.191406 0.289062 18.109375 0.277344 18.039062 0.265625 C 17.96875 0.257812 17.890625 0.242188 17.859375 0.234375 C 17.792969 0.21875 17.355469 0.164062 16.984375 0.125 C 16.558594 0.0820312 15.421875 0.0546875 15.117188 0.078125 M 15.351562 0.789062 C 14.929688 0.816406 14.710938 0.832031 14.617188 0.84375 C 14.179688 0.902344 13.910156 0.949219 13.585938 1.023438 C 13.527344 1.039062 13.453125 1.054688 13.421875 1.0625 C 13.199219 1.113281 12.484375 1.332031 12.335938 1.390625 C 12.320312 1.398438 12.269531 1.414062 12.226562 1.429688 C 12.183594 1.445312 12.132812 1.460938 12.117188 1.46875 C 12.101562 1.476562 12.054688 1.492188 12.015625 1.507812 C 11.976562 1.523438 11.914062 1.546875 11.878906 1.566406 C 11.84375 1.582031 11.808594 1.59375 11.804688 1.59375 C 11.800781 1.59375 11.761719 1.609375 11.722656 1.625 C 11.558594 1.703125 11.414062 1.769531 11.390625 1.78125 C 10.796875 2.089844 10.328125 2.40625 9.828125 2.835938 C 9 3.542969 8.425781 4.277344 7.980469 5.183594 C 7.632812 5.894531 7.519531 6.332031 7.492188 7.101562 L 7.480469 7.367188 L 8.007812 7.367188 C 8.519531 7.371094 8.667969 7.378906 9.085938 7.429688 C 9.78125 7.519531 10.503906 7.761719 10.675781 7.964844 C 10.71875 8.019531 10.757812 8.105469 10.746094 8.121094 C 10.738281 8.125 10.71875 8.117188 10.699219 8.097656 C 10.648438 8.050781 10.550781 8.011719 10.359375 7.964844 C 10.003906 7.875 9.78125 7.832031 9.398438 7.78125 C 8.835938 7.707031 7.6875 7.707031 7.171875 7.78125 C 7.117188 7.789062 7.015625 7.804688 6.945312 7.8125 C 6.625 7.859375 6.0625 7.988281 5.6875 8.101562 C 5.363281 8.203125 4.941406 8.347656 4.804688 8.40625 C 4.789062 8.414062 4.699219 8.449219 4.609375 8.484375 C 4.519531 8.519531 4.417969 8.5625 4.382812 8.578125 C 4.347656 8.59375 4.265625 8.628906 4.199219 8.65625 C 4.007812 8.734375 3.542969 8.96875 3.3125 9.101562 C 2.84375 9.371094 2.519531 9.621094 2.148438 9.992188 C 1.679688 10.460938 1.324219 10.964844 1.023438 11.585938 C 0.792969 12.058594 0.640625 12.515625 0.546875 13.007812 C 0.496094 13.285156 0.484375 13.363281 0.464844 13.652344 C 0.421875 14.34375 0.539062 14.964844 0.820312 15.476562 C 1.300781 16.355469 2.261719 17.046875 3.390625 17.316406 C 3.671875 17.386719 3.816406 17.410156 4.171875 17.457031 C 4.386719 17.484375 5.285156 17.484375 5.53125 17.457031 C 6.050781 17.398438 6.570312 17.320312 6.855469 17.25 C 6.890625 17.242188 6.953125 17.226562 6.988281 17.21875 C 7.363281 17.132812 7.890625 16.992188 8.132812 16.914062 C 8.167969 16.902344 8.269531 16.871094 8.359375 16.84375 C 8.449219 16.816406 8.65625 16.75 8.820312 16.691406 C 9.445312 16.480469 9.71875 16.390625 9.898438 16.34375 C 10 16.316406 10.199219 16.261719 10.335938 16.222656 C 10.472656 16.183594 10.625 16.144531 10.671875 16.132812 C 10.792969 16.097656 11.175781 15.972656 11.207031 15.953125 C 11.246094 15.929688 11.28125 15.933594 11.28125 15.957031 C 11.28125 15.976562 11.269531 15.988281 11.148438 16.054688 C 11.105469 16.078125 11.058594 16.105469 11.046875 16.117188 C 11.03125 16.128906 11.015625 16.140625 11.011719 16.140625 C 11.003906 16.140625 10.964844 16.164062 10.925781 16.195312 C 10.835938 16.257812 10.253906 16.621094 10.167969 16.664062 C 10.132812 16.679688 10.089844 16.710938 10.066406 16.730469 L 10.023438 16.761719 L 10.101562 16.796875 C 10.253906 16.863281 10.304688 16.886719 10.390625 16.917969 C 10.546875 16.976562 10.695312 17.027344 10.789062 17.054688 C 10.90625 17.089844 10.980469 17.109375 11.03125 17.125 C 11.257812 17.199219 12.015625 17.351562 12.515625 17.421875 C 13.039062 17.496094 13.210938 17.515625 13.84375 17.59375 C 13.992188 17.609375 14.359375 17.644531 14.71875 17.675781 C 15.078125 17.703125 16.207031 17.699219 16.601562 17.667969 C 17.304688 17.609375 17.875 17.523438 18.601562 17.367188 C 19.136719 17.253906 19.941406 17.015625 20.617188 16.773438 C 20.835938 16.695312 21.332031 16.503906 21.460938 16.445312 C 21.503906 16.425781 21.59375 16.386719 21.664062 16.359375 C 21.734375 16.332031 21.8125 16.289062 21.84375 16.269531 C 21.875 16.25 21.957031 16.210938 22.023438 16.1875 C 22.09375 16.160156 22.269531 16.074219 22.417969 16 C 22.566406 15.921875 22.734375 15.839844 22.792969 15.820312 C 22.945312 15.761719 23.171875 15.648438 23.226562 15.601562 C 23.265625 15.566406 23.3125 15.550781 23.3125 15.570312 C 23.3125 15.582031 23.226562 15.777344 23.191406 15.84375 C 23.144531 15.925781 23.003906 16.117188 22.945312 16.171875 C 22.925781 16.191406 22.90625 16.214844 22.90625 16.21875 C 22.90625 16.230469 22.890625 16.226562 23.1875 16.3125 C 23.453125 16.390625 23.605469 16.433594 23.828125 16.5 C 24.117188 16.585938 24.148438 16.59375 24.242188 16.617188 C 24.679688 16.734375 24.910156 16.78125 25.257812 16.832031 C 25.449219 16.859375 26.210938 16.859375 26.40625 16.832031 C 26.914062 16.761719 27.316406 16.675781 27.695312 16.558594 C 27.765625 16.535156 27.871094 16.503906 27.929688 16.484375 C 27.988281 16.464844 28.054688 16.445312 28.070312 16.4375 C 28.085938 16.429688 28.1875 16.390625 28.296875 16.351562 C 28.902344 16.125 29.59375 15.769531 29.992188 15.480469 C 30.316406 15.242188 30.597656 14.972656 30.769531 14.742188 C 30.777344 14.734375 30.796875 14.707031 30.816406 14.679688 C 30.910156 14.558594 31.0625 14.292969 31.128906 14.132812 C 31.242188 13.859375 31.308594 13.605469 31.359375 13.257812 C 31.382812 13.097656 31.382812 12.558594 31.359375 12.398438 C 31.328125 12.171875 31.296875 11.992188 31.28125 11.9375 C 31.273438 11.90625 31.257812 11.835938 31.242188 11.78125 C 31.148438 11.421875 30.921875 10.871094 30.753906 10.613281 C 30.726562 10.566406 30.703125 10.527344 30.703125 10.523438 C 30.703125 10.511719 30.542969 10.277344 30.457031 10.15625 C 30.023438 9.566406 29.328125 8.972656 28.578125 8.546875 C 28.402344 8.449219 27.941406 8.222656 27.78125 8.15625 C 27.691406 8.121094 27.597656 8.082031 27.570312 8.070312 C 27.496094 8.039062 27.097656 7.90625 26.96875 7.875 C 26.53125 7.753906 26.1875 7.6875 25.78125 7.648438 C 25.390625 7.609375 25.003906 7.632812 24.546875 7.722656 C 24.222656 7.789062 24.234375 7.78125 24.175781 7.9375 C 24.074219 8.195312 23.886719 8.550781 23.714844 8.8125 C 23.632812 8.933594 23.472656 9.097656 23.074219 9.476562 C 22.832031 9.703125 22.78125 9.726562 22.839844 9.589844 C 22.886719 9.488281 22.976562 9.203125 23.015625 9.039062 C 23.070312 8.820312 23.132812 8.632812 23.230469 8.421875 C 23.464844 7.90625 23.597656 7.457031 23.664062 6.976562 C 23.703125 6.695312 23.699219 6.121094 23.65625 5.84375 C 23.554688 5.160156 23.257812 4.449219 22.820312 3.839844 C 22.46875 3.355469 22 2.828125 21.65625 2.539062 C 21.128906 2.09375 20.402344 1.699219 19.546875 1.394531 C 19.203125 1.273438 18.917969 1.191406 18.429688 1.078125 C 18.257812 1.039062 17.925781 0.976562 17.570312 0.921875 C 17.335938 0.886719 16.824219 0.832031 16.496094 0.8125 C 16.222656 0.796875 15.5 0.78125 15.351562 0.789062 M 15.5625 4.027344 C 15.539062 4.027344 15.464844 4.039062 15.390625 4.046875 C 15.246094 4.066406 14.898438 4.132812 14.820312 4.15625 C 14.792969 4.164062 14.703125 4.191406 14.617188 4.21875 C 13.515625 4.554688 12.765625 5.261719 12.269531 6.445312 C 11.972656 7.148438 11.839844 7.753906 11.839844 8.398438 C 11.84375 8.78125 11.875 9.082031 11.976562 9.585938 C 12.039062 9.914062 12.0625 10 12.109375 10.140625 C 12.136719 10.214844 12.15625 10.300781 12.15625 10.324219 C 12.15625 10.410156 12.230469 10.457031 12.421875 10.5 C 12.550781 10.53125 13.449219 10.53125 13.734375 10.503906 C 13.84375 10.492188 14.0625 10.472656 14.226562 10.460938 C 14.390625 10.449219 14.589844 10.429688 14.671875 10.421875 C 14.753906 10.414062 14.933594 10.394531 15.070312 10.382812 C 15.207031 10.371094 15.378906 10.351562 15.453125 10.34375 C 15.527344 10.335938 15.691406 10.316406 15.820312 10.304688 C 15.949219 10.292969 16.109375 10.273438 16.179688 10.265625 C 16.25 10.257812 16.351562 10.246094 16.40625 10.242188 C 16.460938 10.238281 16.5625 10.226562 16.625 10.21875 C 16.6875 10.210938 16.8125 10.199219 16.898438 10.1875 C 16.984375 10.179688 17.121094 10.164062 17.203125 10.15625 C 17.285156 10.144531 17.417969 10.132812 17.5 10.125 C 18.015625 10.074219 18.167969 10.058594 18.3125 10.046875 C 18.992188 9.984375 19.136719 9.96875 19.242188 9.9375 C 19.410156 9.886719 19.445312 9.796875 19.460938 9.402344 C 19.464844 9.277344 19.484375 9.132812 19.523438 8.949219 C 19.617188 8.476562 19.625 8.429688 19.625 8.125 C 19.625 7.847656 19.617188 7.757812 19.570312 7.367188 C 19.460938 6.535156 19.253906 5.90625 18.9375 5.460938 C 18.820312 5.292969 18.527344 5 18.347656 4.863281 C 17.875 4.507812 17.339844 4.242188 16.820312 4.117188 C 16.515625 4.039062 16.285156 4.015625 15.929688 4.019531 C 15.75 4.019531 15.585938 4.023438 15.5625 4.027344 M 9.535156 16.980469 L 9.324219 17.070312 L 9.335938 17.257812 C 9.339844 17.359375 9.351562 17.507812 9.359375 17.585938 C 9.371094 17.664062 9.378906 18.203125 9.382812 18.78125 C 9.386719 19.359375 9.398438 20.003906 9.40625 20.210938 C 9.414062 20.417969 9.429688 20.742188 9.4375 20.9375 C 9.457031 21.347656 9.484375 22.179688 9.492188 22.703125 C 9.5 22.90625 9.503906 23.085938 9.507812 23.105469 C 9.511719 23.128906 9.601562 23.195312 9.785156 23.316406 C 10.03125 23.480469 10.289062 23.675781 10.757812 24.046875 C 10.96875 24.214844 11.382812 24.527344 11.726562 24.78125 C 12.292969 25.195312 12.597656 25.421875 12.90625 25.65625 C 13.269531 25.933594 13.433594 26.050781 13.472656 26.066406 C 13.488281 26.074219 13.511719 26.105469 13.527344 26.136719 C 13.550781 26.191406 13.554688 26.335938 13.5625 27.8125 C 13.570312 28.703125 13.578125 29.441406 13.582031 29.453125 C 13.585938 29.464844 13.601562 29.839844 13.609375 30.28125 C 13.621094 30.722656 13.628906 31.089844 13.632812 31.089844 C 13.636719 31.09375 13.71875 31.035156 13.816406 30.957031 C 14.261719 30.601562 16.941406 28.710938 17.9375 28.046875 C 18.609375 27.601562 19.050781 27.320312 19.691406 26.9375 C 20.320312 26.558594 20.304688 26.566406 20.546875 26.429688 C 20.664062 26.363281 20.929688 26.203125 21.140625 26.078125 C 21.480469 25.875 21.660156 25.761719 22.089844 25.488281 C 22.152344 25.445312 22.207031 25.40625 22.210938 25.394531 C 22.214844 25.386719 22.132812 25.304688 22.035156 25.214844 C 21.886719 25.085938 21.691406 24.910156 21.320312 24.570312 C 21.105469 24.375 20.585938 23.898438 20.304688 23.632812 C 20.089844 23.433594 19.542969 22.929688 19.390625 22.796875 C 18.878906 22.335938 18.613281 22.09375 18.496094 21.972656 C 18.421875 21.894531 18.316406 21.792969 18.261719 21.746094 C 18.152344 21.652344 18.113281 21.570312 18.136719 21.488281 C 18.179688 21.300781 18.445312 20.886719 18.902344 20.273438 C 19.28125 19.769531 19.628906 19.347656 20.355469 18.507812 C 21.34375 17.359375 21.726562 16.90625 21.710938 16.894531 C 21.703125 16.886719 21.570312 16.933594 21.539062 16.953125 C 21.53125 16.960938 21.453125 16.992188 21.367188 17.023438 C 21.28125 17.054688 21.191406 17.089844 21.164062 17.101562 C 21.136719 17.113281 21.027344 17.15625 20.914062 17.195312 C 20.132812 17.476562 19.339844 17.703125 18.632812 17.84375 C 18.375 17.894531 18.328125 17.902344 18.171875 17.929688 C 18.089844 17.941406 17.984375 17.960938 17.9375 17.96875 C 17.859375 17.980469 17.667969 18.007812 17.34375 18.046875 C 16.914062 18.097656 16.566406 18.113281 15.875 18.117188 C 15.15625 18.117188 15.027344 18.109375 14.375 18.046875 C 13.882812 17.996094 13.632812 17.964844 13.09375 17.882812 C 12.636719 17.816406 12.210938 17.738281 11.804688 17.65625 C 11.339844 17.558594 10.667969 17.351562 10.3125 17.191406 C 10.167969 17.128906 9.917969 16.996094 9.839844 16.945312 C 9.796875 16.914062 9.753906 16.890625 9.75 16.890625 C 9.746094 16.894531 9.648438 16.933594 9.535156 16.980469 "/>
<path style=" stroke:none;fill-rule:evenodd;fill:rgb(73.333335%,92.156863%,98.431373%);fill-opacity:1;" d="M 15.351562 0.789062 C 14.929688 0.816406 14.710938 0.832031 14.617188 0.84375 C 14.179688 0.902344 13.910156 0.949219 13.585938 1.023438 C 13.527344 1.039062 13.453125 1.054688 13.421875 1.0625 C 13.199219 1.113281 12.484375 1.332031 12.335938 1.390625 C 12.320312 1.398438 12.269531 1.414062 12.226562 1.429688 C 12.183594 1.445312 12.132812 1.460938 12.117188 1.46875 C 12.101562 1.476562 12.054688 1.492188 12.015625 1.507812 C 11.976562 1.523438 11.914062 1.546875 11.878906 1.566406 C 11.84375 1.582031 11.808594 1.59375 11.804688 1.59375 C 11.800781 1.59375 11.761719 1.609375 11.722656 1.625 C 11.558594 1.703125 11.414062 1.769531 11.390625 1.78125 C 10.796875 2.089844 10.328125 2.40625 9.828125 2.835938 C 9 3.542969 8.425781 4.277344 7.980469 5.183594 C 7.632812 5.894531 7.519531 6.332031 7.492188 7.101562 L 7.480469 7.367188 L 8.007812 7.367188 C 8.519531 7.371094 8.667969 7.378906 9.085938 7.429688 C 9.78125 7.519531 10.503906 7.761719 10.675781 7.964844 C 10.71875 8.019531 10.757812 8.105469 10.746094 8.121094 C 10.738281 8.125 10.71875 8.117188 10.699219 8.097656 C 10.648438 8.050781 10.550781 8.011719 10.359375 7.964844 C 10.003906 7.875 9.78125 7.832031 9.398438 7.78125 C 8.835938 7.707031 7.6875 7.707031 7.171875 7.78125 C 7.117188 7.789062 7.015625 7.804688 6.945312 7.8125 C 6.625 7.859375 6.0625 7.988281 5.6875 8.101562 C 5.363281 8.203125 4.941406 8.347656 4.804688 8.40625 C 4.789062 8.414062 4.699219 8.449219 4.609375 8.484375 C 4.519531 8.519531 4.417969 8.5625 4.382812 8.578125 C 4.347656 8.59375 4.265625 8.628906 4.199219 8.65625 C 4.007812 8.734375 3.542969 8.96875 3.3125 9.101562 C 2.84375 9.371094 2.519531 9.621094 2.148438 9.992188 C 1.679688 10.460938 1.324219 10.964844 1.023438 11.585938 C 0.792969 12.058594 0.640625 12.515625 0.546875 13.007812 C 0.496094 13.285156 0.484375 13.363281 0.464844 13.652344 C 0.421875 14.34375 0.539062 14.964844 0.820312 15.476562 C 1.300781 16.355469 2.261719 17.046875 3.390625 17.316406 C 3.671875 17.386719 3.816406 17.410156 4.171875 17.457031 C 4.386719 17.484375 5.285156 17.484375 5.53125 17.457031 C 6.050781 17.398438 6.570312 17.320312 6.855469 17.25 C 6.890625 17.242188 6.953125 17.226562 6.988281 17.21875 C 7.363281 17.132812 7.890625 16.992188 8.132812 16.914062 C 8.167969 16.902344 8.269531 16.871094 8.359375 16.84375 C 8.449219 16.816406 8.65625 16.75 8.820312 16.691406 C 9.445312 16.480469 9.71875 16.390625 9.898438 16.34375 C 10 16.316406 10.199219 16.261719 10.335938 16.222656 C 10.472656 16.183594 10.625 16.144531 10.671875 16.132812 C 10.792969 16.097656 11.175781 15.972656 11.207031 15.953125 C 11.246094 15.929688 11.28125 15.933594 11.28125 15.957031 C 11.28125 15.976562 11.269531 15.988281 11.148438 16.054688 C 11.105469 16.078125 11.058594 16.105469 11.046875 16.117188 C 11.03125 16.128906 11.015625 16.140625 11.011719 16.140625 C 11.003906 16.140625 10.964844 16.164062 10.925781 16.195312 C 10.835938 16.257812 10.253906 16.621094 10.167969 16.664062 C 10.132812 16.679688 10.089844 16.710938 10.066406 16.730469 L 10.023438 16.761719 L 10.101562 16.796875 C 10.253906 16.863281 10.304688 16.886719 10.390625 16.917969 C 10.546875 16.976562 10.695312 17.027344 10.789062 17.054688 C 10.90625 17.089844 10.980469 17.109375 11.03125 17.125 C 11.257812 17.199219 12.015625 17.351562 12.515625 17.421875 C 13.039062 17.496094 13.210938 17.515625 13.84375 17.59375 C 13.992188 17.609375 14.359375 17.644531 14.71875 17.675781 C 15.078125 17.703125 16.207031 17.699219 16.601562 17.667969 C 17.304688 17.609375 17.875 17.523438 18.601562 17.367188 C 19.136719 17.253906 19.941406 17.015625 20.617188 16.773438 C 20.835938 16.695312 21.332031 16.503906 21.460938 16.445312 C 21.503906 16.425781 21.59375 16.386719 21.664062 16.359375 C 21.734375 16.332031 21.8125 16.289062 21.84375 16.269531 C 21.875 16.25 21.957031 16.210938 22.023438 16.1875 C 22.09375 16.160156 22.269531 16.074219 22.417969 16 C 22.566406 15.921875 22.734375 15.839844 22.792969 15.820312 C 22.945312 15.761719 23.171875 15.648438 23.226562 15.601562 C 23.265625 15.566406 23.3125 15.550781 23.3125 15.570312 C 23.3125 15.582031 23.226562 15.777344 23.191406 15.84375 C 23.144531 15.925781 23.003906 16.117188 22.945312 16.171875 C 22.925781 16.191406 22.90625 16.214844 22.90625 16.21875 C 22.90625 16.230469 22.890625 16.226562 23.1875 16.3125 C 23.453125 16.390625 23.605469 16.433594 23.828125 16.5 C 24.117188 16.585938 24.148438 16.59375 24.242188 16.617188 C 24.679688 16.734375 24.910156 16.78125 25.257812 16.832031 C 25.449219 16.859375 26.210938 16.859375 26.40625 16.832031 C 26.914062 16.761719 27.316406 16.675781 27.695312 16.558594 C 27.765625 16.535156 27.871094 16.503906 27.929688 16.484375 C 27.988281 16.464844 28.054688 16.445312 28.070312 16.4375 C 28.085938 16.429688 28.1875 16.390625 28.296875 16.351562 C 28.902344 16.125 29.59375 15.769531 29.992188 15.480469 C 30.316406 15.242188 30.597656 14.972656 30.769531 14.742188 C 30.777344 14.734375 30.796875 14.707031 30.816406 14.679688 C 30.910156 14.558594 31.0625 14.292969 31.128906 14.132812 C 31.242188 13.859375 31.308594 13.605469 31.359375 13.257812 C 31.382812 13.097656 31.382812 12.558594 31.359375 12.398438 C 31.328125 12.171875 31.296875 11.992188 31.28125 11.9375 C 31.273438 11.90625 31.257812 11.835938 31.242188 11.78125 C 31.148438 11.421875 30.921875 10.871094 30.753906 10.613281 C 30.726562 10.566406 30.703125 10.527344 30.703125 10.523438 C 30.703125 10.511719 30.542969 10.277344 30.457031 10.15625 C 30.023438 9.566406 29.328125 8.972656 28.578125 8.546875 C 28.402344 8.449219 27.941406 8.222656 27.78125 8.15625 C 27.691406 8.121094 27.597656 8.082031 27.570312 8.070312 C 27.496094 8.039062 27.097656 7.90625 26.96875 7.875 C 26.53125 7.753906 26.1875 7.6875 25.78125 7.648438 C 25.390625 7.609375 25.003906 7.632812 24.546875 7.722656 C 24.222656 7.789062 24.234375 7.78125 24.175781 7.9375 C 24.074219 8.195312 23.886719 8.550781 23.714844 8.8125 C 23.632812 8.933594 23.472656 9.097656 23.074219 9.476562 C 22.832031 9.703125 22.78125 9.726562 22.839844 9.589844 C 22.886719 9.488281 22.976562 9.203125 23.015625 9.039062 C 23.070312 8.820312 23.132812 8.632812 23.230469 8.421875 C 23.464844 7.90625 23.597656 7.457031 23.664062 6.976562 C 23.703125 6.695312 23.699219 6.121094 23.65625 5.84375 C 23.554688 5.160156 23.257812 4.449219 22.820312 3.839844 C 22.46875 3.355469 22 2.828125 21.65625 2.539062 C 21.128906 2.09375 20.402344 1.699219 19.546875 1.394531 C 19.203125 1.273438 18.917969 1.191406 18.429688 1.078125 C 18.257812 1.039062 17.925781 0.976562 17.570312 0.921875 C 17.335938 0.886719 16.824219 0.832031 16.496094 0.8125 C 16.222656 0.796875 15.5 0.78125 15.351562 0.789062 M 15.5625 4.027344 C 15.539062 4.027344 15.464844 4.039062 15.390625 4.046875 C 15.246094 4.066406 14.898438 4.132812 14.820312 4.15625 C 14.792969 4.164062 14.703125 4.191406 14.617188 4.21875 C 13.515625 4.554688 12.765625 5.261719 12.269531 6.445312 C 11.972656 7.148438 11.839844 7.753906 11.839844 8.398438 C 11.84375 8.78125 11.875 9.082031 11.976562 9.585938 C 12.039062 9.914062 12.0625 10 12.109375 10.140625 C 12.136719 10.214844 12.15625 10.300781 12.15625 10.324219 C 12.15625 10.410156 12.230469 10.457031 12.421875 10.5 C 12.550781 10.53125 13.449219 10.53125 13.734375 10.503906 C 13.84375 10.492188 14.0625 10.472656 14.226562 10.460938 C 14.390625 10.449219 14.589844 10.429688 14.671875 10.421875 C 14.753906 10.414062 14.933594 10.394531 15.070312 10.382812 C 15.207031 10.371094 15.378906 10.351562 15.453125 10.34375 C 15.527344 10.335938 15.691406 10.316406 15.820312 10.304688 C 15.949219 10.292969 16.109375 10.273438 16.179688 10.265625 C 16.25 10.257812 16.351562 10.246094 16.40625 10.242188 C 16.460938 10.238281 16.5625 10.226562 16.625 10.21875 C 16.6875 10.210938 16.8125 10.199219 16.898438 10.1875 C 16.984375 10.179688 17.121094 10.164062 17.203125 10.15625 C 17.285156 10.144531 17.417969 10.132812 17.5 10.125 C 18.015625 10.074219 18.167969 10.058594 18.3125 10.046875 C 18.992188 9.984375 19.136719 9.96875 19.242188 9.9375 C 19.410156 9.886719 19.445312 9.796875 19.460938 9.402344 C 19.464844 9.277344 19.484375 9.132812 19.523438 8.949219 C 19.617188 8.476562 19.625 8.429688 19.625 8.125 C 19.625 7.847656 19.617188 7.757812 19.570312 7.367188 C 19.460938 6.535156 19.253906 5.90625 18.9375 5.460938 C 18.820312 5.292969 18.527344 5 18.347656 4.863281 C 17.875 4.507812 17.339844 4.242188 16.820312 4.117188 C 16.515625 4.039062 16.285156 4.015625 15.929688 4.019531 C 15.75 4.019531 15.585938 4.023438 15.5625 4.027344 "/>
</g>
</svg>
