<svg xmlns="http://www.w3.org/2000/svg" width="2048" height="2048" viewBox="0 0 2048 2048" version="1.1"><path d="M 610.185 1086.831 L 596.869 1092.500 597.503 1104.500 C 597.852 1111.100, 598.580 1120.550, 599.123 1125.500 C 599.665 1130.450, 600.293 1164.875, 600.518 1202 C 600.744 1239.125, 601.397 1280.300, 601.970 1293.500 C 602.543 1306.700, 603.474 1327.625, 604.040 1340 C 605.238 1366.247, 606.921 1419.443, 607.614 1453 C 607.881 1465.925, 608.300 1477.472, 608.546 1478.660 C 608.851 1480.132, 614.488 1484.495, 626.246 1492.359 C 641.923 1502.842, 658.490 1515.256, 688.493 1539 C 702.037 1549.718, 728.591 1569.811, 750.554 1585.960 C 786.694 1612.533, 806.272 1627.102, 826 1642.101 C 849.192 1659.734, 859.681 1667.303, 862.295 1668.293 C 863.282 1668.666, 864.854 1670.666, 865.788 1672.736 C 867.336 1676.170, 867.536 1685.571, 868.067 1780 C 868.387 1836.925, 868.929 1884.175, 869.271 1885 C 869.613 1885.825, 870.407 1909.675, 871.034 1938 C 871.662 1966.325, 872.342 1989.668, 872.545 1989.874 C 872.749 1990.080, 877.997 1986.216, 884.208 1981.288 C 912.836 1958.571, 1084.191 1837.625, 1148 1795.098 C 1190.927 1766.488, 1219.160 1748.588, 1260.229 1723.943 C 1300.553 1699.745, 1299.556 1700.336, 1315 1691.454 C 1322.425 1687.183, 1339.525 1677.076, 1353 1668.994 C 1374.650 1656.009, 1386.324 1648.734, 1413.736 1631.143 C 1417.716 1628.590, 1421.173 1625.979, 1421.420 1625.341 C 1421.666 1624.704, 1416.609 1619.542, 1410.184 1613.870 C 1400.729 1605.525, 1388.164 1594.174, 1364.397 1572.506 C 1350.698 1560.017, 1317.531 1529.399, 1299.411 1512.515 C 1285.782 1499.815, 1250.656 1467.605, 1240.961 1458.918 C 1208.139 1429.505, 1191.334 1414.036, 1183.765 1406.270 C 1178.961 1401.340, 1172.177 1394.786, 1168.689 1391.704 C 1161.855 1385.668, 1159.334 1380.530, 1160.634 1375.288 C 1163.605 1363.314, 1180.422 1336.742, 1209.866 1297.500 C 1234.054 1265.262, 1256.131 1238.373, 1302.641 1184.500 C 1366.098 1110.996, 1390.435 1082.102, 1389.594 1081.261 C 1389.121 1080.788, 1380.387 1083.746, 1378.500 1085.019 C 1377.950 1085.390, 1373 1087.393, 1367.500 1089.471 C 1362 1091.549, 1356.150 1093.840, 1354.500 1094.562 C 1352.850 1095.284, 1345.650 1097.974, 1338.500 1100.540 C 1288.448 1118.501, 1237.655 1132.912, 1192.500 1141.963 C 1175.920 1145.286, 1172.894 1145.854, 1163 1147.493 C 1157.775 1148.359, 1151.025 1149.489, 1148 1150.004 C 1142.896 1150.872, 1130.767 1152.453, 1110 1154.956 C 1082.437 1158.278, 1060.198 1159.325, 1016 1159.381 C 970.085 1159.440, 961.701 1159.048, 920 1154.888 C 888.543 1151.749, 872.484 1149.728, 838 1144.567 C 808.683 1140.180, 781.477 1135.367, 755.500 1129.971 C 725.769 1123.797, 682.790 1110.466, 660 1100.351 C 650.868 1096.298, 634.650 1087.818, 629.858 1084.590 C 626.926 1082.616, 624.296 1081.037, 624.013 1081.081 C 623.731 1081.126, 617.508 1083.713, 610.185 1086.831" stroke="none" fill="#fcee31" fill-rule="evenodd"/><path d="M 967.500 5.052 C 962 5.517, 950.750 6.395, 942.500 7.003 C 923.722 8.387, 902.850 11.032, 888 13.910 C 876.056 16.224, 867.134 18.052, 863.500 18.929 C 854.336 21.141, 845.294 23.158, 842.241 23.672 C 840.448 23.974, 838.734 24.621, 838.432 25.110 C 838.129 25.600, 836.835 26, 835.556 26 C 833.043 26, 823.588 28.616, 820.764 30.092 C 819.809 30.592, 818.398 31, 817.628 31 C 816.258 31, 807.457 33.476, 803.500 34.975 C 802.400 35.392, 795.425 37.683, 788 40.066 C 780.575 42.449, 773.825 44.719, 773 45.109 C 772.175 45.499, 766.325 47.722, 760 50.049 C 753.675 52.375, 748.073 54.666, 747.550 55.139 C 747.028 55.613, 746.046 56, 745.370 56 C 744.693 56, 741.071 57.380, 737.320 59.066 C 733.569 60.752, 728.700 62.941, 726.500 63.931 C 719.390 67.128, 694.515 79.393, 694 79.955 C 693.725 80.255, 691.475 81.493, 689 82.706 C 684.082 85.117, 676.793 89.207, 676 90 C 675.725 90.275, 673.925 91.366, 672 92.425 C 670.075 93.483, 668.275 94.613, 668 94.934 C 667.725 95.256, 665.813 96.405, 663.750 97.487 C 661.688 98.569, 660 99.802, 660 100.227 C 660 100.652, 659.583 101, 659.073 101 C 657.952 101, 645.637 109.191, 645.167 110.250 C 644.983 110.662, 644.196 111, 643.417 111 C 642.637 111, 642 111.420, 642 111.933 C 642 112.446, 641.179 113.126, 640.176 113.444 C 639.173 113.762, 637.474 114.805, 636.401 115.761 C 635.328 116.718, 628.836 121.747, 621.975 126.938 C 615.114 132.129, 609.275 136.635, 609 136.951 C 608.725 137.268, 605.125 140.388, 601 143.886 C 585.017 157.436, 562.069 179.325, 551 191.578 C 542.666 200.804, 534.530 210.278, 529.678 216.408 C 527.026 219.759, 524.159 223.357, 523.306 224.404 C 522.453 225.452, 519.343 229.727, 516.395 233.904 C 513.447 238.082, 510.669 241.950, 510.223 242.500 C 509.776 243.050, 505.035 250.547, 499.687 259.161 C 490.507 273.944, 477.279 298.825, 472.127 311 C 470.847 314.025, 469.139 318.075, 468.332 320 C 467.525 321.925, 466.480 324.400, 466.010 325.500 C 465.540 326.600, 464.398 329.750, 463.472 332.500 C 462.546 335.250, 461.423 338.400, 460.977 339.500 C 457.028 349.229, 452.072 369.001, 450.074 383 C 446.640 407.058, 446.367 416.102, 448.498 435.323 C 449.870 447.693, 450.676 452.203, 454.043 466.321 C 454.675 468.972, 454.950 471.384, 454.653 471.680 C 454.357 471.977, 451.051 472.606, 447.307 473.079 C 432.557 474.942, 425.190 476.020, 418 477.367 C 405.610 479.688, 389.695 483.039, 386.500 483.999 C 384.850 484.495, 380.575 485.632, 377 486.526 C 373.425 487.419, 369.150 488.560, 367.500 489.061 C 365.850 489.563, 358.425 491.815, 351 494.066 C 336.948 498.327, 323.936 502.565, 320.500 504 C 319.400 504.459, 317.150 505.283, 315.500 505.830 C 310.305 507.554, 295.587 512.964, 293.500 513.918 C 292.400 514.420, 285.200 517.402, 277.500 520.544 C 255.258 529.621, 223.365 544.798, 207 554.095 C 179.141 569.921, 162.038 581.792, 141 599.904 C 127.330 611.673, 100.619 640.129, 93.037 651 C 91.695 652.925, 90.347 654.725, 90.042 655 C 86.536 658.165, 70.046 683.227, 59.775 701 C 53.220 712.344, 35 749.576, 35 751.629 C 35 751.942, 34.332 753.616, 33.515 755.349 C 30.383 761.994, 21 789.206, 21 791.644 C 21 792.405, 20.568 793.809, 20.040 794.764 C 19.022 796.604, 15.820 808.852, 13.312 820.500 C 4.410 861.841, 2.701 902.290, 8.345 938 C 10.324 950.516, 15.588 969.873, 19.902 980.500 C 22.831 987.715, 28.176 998.711, 32.245 1005.893 C 34.860 1010.510, 37 1014.672, 37 1015.143 C 37 1015.615, 37.348 1016, 37.773 1016 C 38.198 1016, 39.393 1017.575, 40.430 1019.500 C 41.467 1021.425, 42.694 1023, 43.157 1023 C 43.621 1023, 44 1023.643, 44 1024.429 C 44 1025.214, 44.563 1026.463, 45.250 1027.203 C 45.938 1027.944, 48.058 1030.563, 49.963 1033.025 C 51.868 1035.486, 53.780 1037.650, 54.213 1037.833 C 54.646 1038.017, 55 1038.611, 55 1039.155 C 55 1039.698, 55.563 1040.708, 56.250 1041.398 C 56.938 1042.088, 60.200 1045.742, 63.500 1049.518 C 77.428 1065.453, 96.765 1082.627, 113.024 1093.500 C 117.136 1096.250, 120.725 1098.729, 121 1099.009 C 121.745 1099.769, 129.897 1105, 130.335 1105 C 130.543 1105, 134.490 1107.169, 139.107 1109.820 C 157.640 1120.462, 180.302 1130.065, 203 1136.897 C 218.511 1141.565, 218.864 1141.661, 227 1143.445 C 231.125 1144.349, 236.075 1145.484, 238 1145.967 C 241.117 1146.749, 247.773 1147.799, 270 1151.013 C 299.942 1155.342, 351.324 1154.720, 392 1149.534 C 410.527 1147.172, 425.655 1144.810, 434 1142.975 C 438.602 1141.963, 455.317 1138.423, 462.500 1136.939 C 468.056 1135.791, 493.955 1129.151, 497 1128.093 C 498.375 1127.616, 502.425 1126.457, 506 1125.519 C 509.575 1124.580, 513.281 1123.404, 514.236 1122.906 C 515.191 1122.408, 516.588 1122, 517.340 1122 C 518.683 1122, 541.582 1114.727, 545.500 1113.056 C 552.252 1110.176, 569.058 1104.918, 569.882 1105.427 C 573.397 1107.599, 575.167 1136.582, 576.177 1208.500 C 576.687 1244.800, 577.297 1278.325, 577.532 1283 C 578.747 1307.156, 581.158 1346.807, 582.001 1356.500 C 582.527 1362.550, 583.461 1376.725, 584.078 1388 C 586.275 1428.210, 590.814 1477.883, 593.049 1486.183 C 594.365 1491.067, 593.981 1490.674, 606 1499.490 C 611.225 1503.323, 615.725 1506.702, 616 1507.001 C 616.275 1507.299, 622.125 1511.783, 629 1516.965 C 635.875 1522.147, 641.983 1526.862, 642.573 1527.443 C 643.163 1528.024, 645.373 1529.850, 647.485 1531.500 C 649.596 1533.150, 653.216 1536.075, 655.531 1538 C 657.845 1539.925, 660.585 1542.184, 661.619 1543.019 C 670.823 1550.453, 680.592 1558.493, 681 1558.968 C 681.275 1559.289, 683.525 1561.103, 686 1563 C 688.475 1564.897, 690.725 1566.696, 691 1566.998 C 691.275 1567.300, 694.650 1570.001, 698.500 1573 C 702.350 1575.999, 705.725 1578.697, 706 1578.997 C 706.439 1579.476, 710.669 1582.829, 725.554 1594.500 C 727.658 1596.150, 731.207 1598.990, 733.440 1600.812 C 738.338 1604.807, 739.245 1605.525, 745.003 1609.974 C 747.476 1611.885, 749.725 1613.707, 750 1614.022 C 750.275 1614.338, 754.550 1617.712, 759.500 1621.520 C 764.450 1625.328, 768.725 1628.713, 769 1629.042 C 769.275 1629.371, 771.975 1631.482, 775 1633.734 C 784.940 1641.132, 806.717 1658.445, 814.957 1665.500 C 817.527 1667.700, 822.291 1671.750, 825.543 1674.500 C 834.321 1681.922, 842.989 1690.363, 842.999 1691.500 C 843.004 1692.050, 844.131 1694.714, 845.504 1697.419 C 846.877 1700.125, 848.003 1702.825, 848.006 1703.419 C 848.010 1704.014, 848.743 1705.850, 849.636 1707.500 C 850.973 1709.970, 851.232 1713.502, 851.104 1727.500 C 851.018 1736.850, 850.463 1750.350, 849.870 1757.500 C 848.457 1774.545, 848.494 1907.133, 849.916 1920 C 850.498 1925.268, 850.973 1950.690, 850.983 1977.072 C 850.998 2018.437, 851.214 2025.287, 852.638 2029.572 C 855.699 2038.781, 858.402 2040.439, 867.316 2038.574 C 871.923 2037.610, 876.484 2035.594, 882.683 2031.780 C 887.533 2028.797, 892.175 2026.033, 893 2025.639 C 895.594 2024.398, 928.977 2002.572, 932.500 1999.813 C 937.101 1996.210, 941.469 1992.970, 954.500 1983.493 C 962.750 1977.494, 969.725 1972.338, 970 1972.037 C 970.275 1971.735, 973.200 1969.496, 976.500 1967.061 C 979.800 1964.626, 982.725 1962.376, 983 1962.061 C 983.275 1961.746, 986.200 1959.496, 989.500 1957.061 C 992.800 1954.626, 995.725 1952.376, 996 1952.061 C 996.275 1951.746, 999.200 1949.496, 1002.500 1947.061 C 1005.800 1944.626, 1008.725 1942.376, 1009 1942.061 C 1009.275 1941.746, 1012.200 1939.496, 1015.500 1937.061 C 1018.800 1934.626, 1021.725 1932.376, 1022 1932.061 C 1022.275 1931.746, 1025.188 1929.488, 1028.473 1927.043 C 1031.759 1924.598, 1035.134 1922.040, 1035.973 1921.359 C 1037.651 1919.996, 1066.244 1898.224, 1075 1891.640 C 1078.025 1889.366, 1080.725 1887.278, 1081 1887 C 1081.275 1886.722, 1084.200 1884.472, 1087.500 1882 C 1090.800 1879.528, 1093.725 1877.276, 1094 1876.997 C 1094.275 1876.717, 1097.200 1874.496, 1100.500 1872.061 C 1103.800 1869.626, 1106.725 1867.369, 1107 1867.046 C 1107.275 1866.723, 1111.775 1863.327, 1117 1859.500 C 1122.225 1855.673, 1126.725 1852.291, 1127 1851.984 C 1127.275 1851.678, 1131.775 1848.327, 1137 1844.538 C 1142.225 1840.749, 1146.725 1837.362, 1147 1837.010 C 1147.481 1836.396, 1180.771 1812.071, 1185.333 1809 C 1188.260 1807.030, 1201.218 1797.761, 1202.500 1796.720 C 1203.508 1795.902, 1243.196 1768.125, 1257.689 1758.094 C 1261.985 1755.121, 1274.950 1746.308, 1286.500 1738.509 C 1320.415 1715.610, 1331.437 1708.129, 1332.500 1707.290 C 1333.050 1706.855, 1339.350 1702.588, 1346.500 1697.806 C 1353.650 1693.024, 1363.100 1686.596, 1367.500 1683.522 C 1371.900 1680.448, 1377.300 1676.755, 1379.500 1675.317 C 1381.700 1673.878, 1383.725 1672.412, 1384 1672.059 C 1384.275 1671.706, 1390.840 1666.842, 1398.588 1661.251 C 1411.959 1651.603, 1436.164 1638, 1439.962 1638 C 1442.012 1638, 1445 1634.955, 1445 1632.867 C 1445 1630.243, 1439.504 1622.710, 1430.903 1613.547 C 1418.296 1600.115, 1378.983 1560.919, 1347.608 1530.500 C 1332.291 1515.650, 1316.062 1499.900, 1311.544 1495.500 C 1283.207 1467.904, 1270.598 1455.751, 1256.041 1442 C 1236.907 1423.926, 1202.911 1390.283, 1197.939 1384.500 C 1191.743 1377.293, 1186 1369.117, 1186 1367.501 C 1186 1366.629, 1186.465 1365.372, 1187.033 1364.708 C 1187.601 1364.044, 1190.178 1360.575, 1192.760 1357 C 1195.342 1353.425, 1197.691 1350.275, 1197.980 1350 C 1198.269 1349.725, 1200.529 1346.810, 1203.003 1343.523 C 1205.476 1340.235, 1208.245 1336.635, 1209.156 1335.523 C 1210.067 1334.410, 1213.118 1330.575, 1215.937 1327 C 1218.756 1323.425, 1221.611 1319.824, 1222.281 1318.997 C 1222.952 1318.170, 1225.069 1315.470, 1226.986 1312.997 C 1228.903 1310.524, 1230.928 1308.017, 1231.486 1307.426 C 1232.044 1306.835, 1233.625 1304.878, 1235 1303.077 C 1236.375 1301.276, 1238.202 1299.059, 1239.060 1298.151 C 1239.918 1297.243, 1243.518 1292.915, 1247.060 1288.532 C 1253.138 1281.013, 1257.210 1276.133, 1259.514 1273.611 C 1260.072 1273, 1264.122 1268.225, 1268.514 1263 C 1272.906 1257.775, 1276.732 1253.275, 1277.014 1253 C 1277.297 1252.725, 1280.222 1249.350, 1283.514 1245.500 C 1286.807 1241.650, 1289.977 1238.050, 1290.561 1237.500 C 1291.144 1236.950, 1294.069 1233.583, 1297.061 1230.017 C 1300.052 1226.452, 1303.410 1222.627, 1304.523 1221.517 C 1305.635 1220.408, 1309.685 1215.900, 1313.523 1211.500 C 1317.360 1207.100, 1320.725 1203.275, 1321 1203 C 1321.275 1202.725, 1323.300 1200.450, 1325.500 1197.945 C 1339.457 1182.053, 1342.925 1178.113, 1346.540 1174.046 C 1348.762 1171.546, 1353.034 1166.575, 1356.034 1163 C 1359.033 1159.425, 1361.722 1156.275, 1362.009 1156 C 1362.296 1155.725, 1366.342 1151, 1371 1145.500 C 1375.658 1140, 1379.707 1135.275, 1379.998 1135 C 1380.289 1134.725, 1382.540 1132.025, 1385 1129 C 1387.460 1125.975, 1389.704 1123.275, 1389.986 1123 C 1390.269 1122.725, 1392.740 1119.800, 1395.478 1116.500 C 1398.215 1113.200, 1400.690 1110.275, 1400.978 1110 C 1401.265 1109.725, 1403.208 1107.374, 1405.297 1104.775 C 1407.385 1102.176, 1409.635 1099.476, 1410.297 1098.775 C 1411.373 1097.634, 1416.617 1090.901, 1418.066 1088.799 C 1418.377 1088.347, 1424.704 1089.966, 1432.125 1092.395 C 1445.934 1096.916, 1489.038 1108, 1492.810 1108 C 1493.963 1108, 1495.940 1108.401, 1497.203 1108.892 C 1498.466 1109.382, 1503.775 1110.522, 1509 1111.425 C 1514.225 1112.327, 1520.525 1113.483, 1523 1113.994 C 1529.149 1115.263, 1554.468 1119.028, 1570 1120.983 C 1600.370 1124.807, 1656.233 1124.848, 1682 1121.066 C 1685.575 1120.541, 1693.900 1119.367, 1700.500 1118.457 C 1707.100 1117.547, 1714.075 1116.424, 1716 1115.962 C 1717.925 1115.499, 1723.325 1114.381, 1728 1113.477 C 1732.675 1112.572, 1737.850 1111.446, 1739.500 1110.973 C 1741.150 1110.501, 1745.650 1109.375, 1749.500 1108.472 C 1753.350 1107.569, 1757.625 1106.469, 1759 1106.028 C 1760.375 1105.586, 1764.425 1104.450, 1768 1103.502 C 1771.575 1102.554, 1775.400 1101.439, 1776.500 1101.023 C 1777.600 1100.607, 1784.575 1098.317, 1792 1095.934 C 1799.425 1093.551, 1806.175 1091.287, 1807 1090.903 C 1807.825 1090.519, 1810.525 1089.430, 1813 1088.483 C 1818.303 1086.453, 1819.055 1086.156, 1829.500 1081.957 C 1833.900 1080.188, 1840.200 1077.509, 1843.500 1076.003 C 1846.800 1074.497, 1851.750 1072.267, 1854.500 1071.047 C 1860.327 1068.462, 1880.906 1058.175, 1886 1055.301 C 1887.925 1054.215, 1892.200 1051.831, 1895.500 1050.003 C 1930.763 1030.467, 1964.460 1004.004, 1983.818 980.644 C 1986.943 976.873, 1990.730 972.373, 1992.234 970.644 C 1993.738 968.915, 1994.975 966.938, 1994.984 966.250 C 1994.993 965.563, 1995.379 965, 1995.843 965 C 1996.306 965, 1997.533 963.425, 1998.570 961.500 C 1999.607 959.575, 2000.750 958, 2001.111 958 C 2001.472 958, 2002.031 957.213, 2002.354 956.250 C 2003.027 954.247, 2004.925 951.211, 2006.750 949.221 C 2007.438 948.471, 2008 947.252, 2008 946.512 C 2008 945.772, 2008.342 945.017, 2008.759 944.833 C 2010.544 944.049, 2024.134 916.366, 2027.085 907.500 C 2027.818 905.300, 2028.721 903.050, 2029.093 902.500 C 2029.465 901.950, 2030.103 899.940, 2030.512 898.033 C 2030.920 896.126, 2031.606 893.876, 2032.035 893.033 C 2033.292 890.565, 2036 880.934, 2036 878.932 C 2036 877.921, 2036.410 876.060, 2036.912 874.797 C 2037.901 872.305, 2040.207 858.566, 2041.923 844.948 C 2043.300 834.014, 2043.316 800.180, 2041.950 789.052 C 2039.919 772.518, 2035.890 750.608, 2033.022 740.500 C 2032.397 738.300, 2031.438 734.700, 2030.890 732.500 C 2026.630 715.404, 2012.252 681.938, 1999.929 660.439 C 1995.569 652.833, 1985.313 636.784, 1982.712 633.500 C 1982.277 632.950, 1979.300 629.038, 1976.097 624.807 C 1959.287 602.600, 1933.937 576.267, 1916.406 562.801 C 1914.808 561.574, 1913.275 560.298, 1913 559.968 C 1912.725 559.637, 1909.800 557.371, 1906.500 554.933 C 1903.200 552.495, 1899.906 549.938, 1899.180 549.251 C 1896.907 547.101, 1866.796 527.422, 1860.500 523.973 C 1857.200 522.164, 1852.925 519.706, 1851 518.509 C 1847.242 516.173, 1815.119 500.328, 1808.500 497.546 C 1804.529 495.877, 1803.737 495.547, 1797 492.752 C 1795.075 491.953, 1791.925 490.737, 1790 490.049 C 1788.075 489.361, 1785.600 488.413, 1784.500 487.941 C 1781.665 486.727, 1759.833 479.591, 1751.500 477.155 C 1738.853 473.459, 1714.543 467.957, 1700.500 465.612 C 1672.540 460.944, 1662.191 460, 1638.932 459.999 C 1611.530 459.997, 1595.622 462.046, 1566.731 469.298 C 1563.558 470.095, 1560.814 470.466, 1560.633 470.123 C 1560.452 469.780, 1560.876 466.350, 1561.575 462.500 C 1563.349 452.734, 1565.468 424.564, 1565.375 412 C 1565.228 392.134, 1562.813 365.924, 1560.032 354 C 1559.583 352.075, 1558.453 347.125, 1557.520 343 C 1556.588 338.875, 1555.416 334.150, 1554.918 332.500 C 1554.419 330.850, 1553.157 326.575, 1552.115 323 C 1550.354 316.964, 1545.453 303.486, 1542.479 296.500 C 1541.776 294.850, 1540.594 291.933, 1539.851 290.018 C 1536.816 282.192, 1522.978 255.787, 1516.522 245.500 C 1505.493 227.928, 1482.129 196.588, 1469.500 182.427 C 1468.950 181.810, 1465.018 177.299, 1460.763 172.403 C 1452.077 162.409, 1429.317 139.766, 1421.119 132.964 C 1418.160 130.509, 1415.235 128.034, 1414.619 127.464 C 1414.004 126.894, 1411.700 125.094, 1409.501 123.464 C 1407.301 121.834, 1404.601 119.685, 1403.501 118.689 C 1402.400 117.693, 1398.350 114.768, 1394.500 112.189 C 1390.650 109.610, 1387.275 107.228, 1387 106.896 C 1386.133 105.848, 1357.839 88.429, 1350 84.117 C 1336.261 76.560, 1307.641 62.715, 1296 57.994 C 1292.975 56.768, 1288.125 54.692, 1285.223 53.382 C 1282.320 52.072, 1279.373 51, 1278.673 51 C 1277.973 51, 1276.972 50.641, 1276.450 50.202 C 1275.927 49.763, 1273.025 48.600, 1270 47.617 C 1266.975 46.634, 1263.600 45.437, 1262.500 44.956 C 1256.666 42.405, 1220.035 31, 1217.677 31 C 1216.740 31, 1215.191 30.588, 1214.236 30.085 C 1213.281 29.582, 1209.575 28.478, 1206 27.632 C 1190.245 23.904, 1182.095 22.062, 1176.500 20.966 C 1173.200 20.319, 1168.700 19.437, 1166.500 19.006 C 1164.300 18.575, 1158.900 17.688, 1154.500 17.035 C 1150.100 16.382, 1144.925 15.458, 1143 14.981 C 1138.668 13.909, 1110.802 10.422, 1087 7.974 C 1059.763 5.173, 987.094 3.396, 967.500 5.052 M 982.500 50.581 C 955.532 52.181, 941.476 53.205, 935.500 54.003 C 907.523 57.742, 890.179 60.780, 869.500 65.562 C 865.650 66.453, 860.925 67.547, 859 67.994 C 844.859 71.278, 798.973 85.132, 789.500 88.977 C 788.400 89.423, 785.250 90.546, 782.500 91.472 C 779.750 92.398, 776.600 93.517, 775.500 93.958 C 774.400 94.399, 771.475 95.551, 769 96.517 C 766.525 97.483, 762.592 99.112, 760.261 100.137 C 757.929 101.162, 755.767 102, 755.456 102 C 755.145 102, 752.777 102.955, 750.195 104.122 C 739.672 108.878, 730.413 113.141, 729 113.880 C 690.943 133.772, 661.121 153.906, 629 181.393 C 576.113 226.649, 539.142 273.655, 510.654 331.861 C 488.421 377.288, 481.297 405.221, 479.376 454.500 L 478.714 471.500 512.607 471.571 C 545.251 471.639, 554.645 472.188, 581.500 475.599 C 626 481.252, 672.249 496.812, 683.187 509.811 C 686.054 513.217, 688.553 518.781, 687.631 519.703 C 687.279 520.054, 685.981 519.395, 684.746 518.238 C 681.581 515.274, 675.157 512.753, 663 509.704 C 640.330 504.019, 625.887 501.289, 601.500 498.080 C 565.420 493.332, 492.042 493.296, 459 498.010 C 455.425 498.520, 448.900 499.437, 444.500 500.048 C 423.996 502.894, 387.894 511.214, 364 518.600 C 343.247 525.014, 316.268 534.277, 307.500 537.999 C 306.400 538.466, 300.775 540.713, 295 542.993 C 289.225 545.273, 282.700 547.952, 280.500 548.946 C 278.300 549.941, 273.014 552.201, 268.754 553.969 C 256.456 559.072, 226.722 574.005, 212 582.471 C 182.077 599.678, 161.167 615.657, 137.469 639.423 C 107.389 669.589, 84.633 701.852, 65.483 741.481 C 50.871 771.721, 41.079 801.054, 35.098 832.500 C 31.701 850.365, 31.081 855.228, 29.843 873.751 C 26.882 918.023, 34.568 957.655, 52.491 990.536 C 83.193 1046.860, 144.868 1091.031, 217 1108.355 C 234.959 1112.669, 244.213 1114.296, 267 1117.149 C 280.843 1118.882, 338.372 1118.909, 354 1117.190 C 387.327 1113.524, 420.381 1108.384, 438.750 1104.012 C 441.087 1103.455, 444.913 1102.559, 447.250 1102.020 C 471.257 1096.485, 505.047 1087.486, 520.500 1082.511 C 522.700 1081.803, 529.225 1079.782, 535 1078.021 C 540.775 1076.259, 554.050 1071.908, 564.500 1068.351 C 604.479 1054.742, 621.907 1049.089, 633.500 1045.969 C 640.100 1044.193, 652.700 1040.744, 661.500 1038.304 C 670.300 1035.864, 679.940 1033.208, 682.922 1032.402 C 690.697 1030.300, 715.182 1022.154, 717.236 1020.987 C 719.645 1019.618, 722 1019.753, 722 1021.259 C 722 1022.611, 721.215 1023.182, 713.500 1027.439 C 710.750 1028.957, 707.790 1030.829, 706.921 1031.599 C 706.053 1032.370, 705.041 1033, 704.674 1033 C 704.306 1033, 701.866 1034.522, 699.252 1036.383 C 693.597 1040.410, 656.134 1063.655, 650.705 1066.507 C 648.617 1067.603, 645.692 1069.480, 644.205 1070.679 L 641.500 1072.857 646.500 1075.052 C 656.346 1079.374, 659.579 1080.721, 665 1082.761 C 675.058 1086.545, 684.432 1089.753, 690.500 1091.486 C 698.032 1093.637, 702.796 1095.051, 706 1096.087 C 720.518 1100.782, 769.022 1110.410, 801 1114.945 C 834.592 1119.709, 845.383 1121.105, 886 1125.942 C 895.619 1127.088, 919.038 1129.263, 942 1131.143 C 964.910 1133.019, 1037.231 1132.729, 1062.500 1130.659 C 1107.407 1126.981, 1144.034 1121.501, 1190.500 1111.507 C 1224.810 1104.128, 1276.191 1089.013, 1319.500 1073.559 C 1333.469 1068.574, 1365.319 1056.150, 1373.500 1052.495 C 1376.250 1051.266, 1382.100 1048.773, 1386.500 1046.954 C 1390.900 1045.135, 1396.114 1042.590, 1398.086 1041.299 C 1400.058 1040.008, 1405.233 1037.584, 1409.586 1035.913 C 1413.939 1034.242, 1425.249 1028.837, 1434.721 1023.903 C 1444.193 1018.969, 1454.993 1013.790, 1458.721 1012.393 C 1468.484 1008.737, 1483.023 1001.450, 1486.406 998.518 C 1488.953 996.310, 1492 995.175, 1492 996.434 C 1492 997.328, 1486.507 1009.669, 1484.181 1014 C 1481.331 1019.306, 1472.263 1031.471, 1468.583 1034.924 C 1467.163 1036.258, 1466 1037.668, 1466 1038.058 C 1466 1038.872, 1465.046 1038.557, 1484 1044.002 C 1501.059 1048.902, 1510.667 1051.697, 1525 1055.927 C 1543.617 1061.422, 1545.406 1061.936, 1551.500 1063.548 C 1579.486 1070.947, 1594.341 1074.072, 1616.500 1077.221 C 1628.693 1078.954, 1677.412 1078.928, 1690 1077.183 C 1722.516 1072.674, 1748.157 1067.227, 1772.500 1059.660 C 1776.900 1058.292, 1783.650 1056.212, 1787.500 1055.039 C 1791.350 1053.866, 1795.400 1052.513, 1796.500 1052.032 C 1797.600 1051.552, 1804.125 1049.063, 1811 1046.502 C 1849.811 1032.042, 1893.961 1009.311, 1919.500 990.640 C 1940.207 975.501, 1958.364 958.292, 1969.235 943.500 C 1969.639 942.950, 1971.016 941.150, 1972.294 939.500 C 1978.205 931.871, 1987.973 914.736, 1992.208 904.565 C 1999.571 886.886, 2003.872 870.672, 2007.080 848.500 C 2008.575 838.165, 2008.555 803.752, 2007.048 793.470 C 2004.912 778.901, 2002.986 767.541, 2002.052 764 C 2001.544 762.075, 2000.382 757.575, 1999.469 754 C 1993.585 730.947, 1978.975 695.823, 1968.368 679.231 C 1966.516 676.332, 1965 673.778, 1965 673.554 C 1965 672.839, 1954.868 657.766, 1949.167 650 C 1921.438 612.226, 1876.981 574.149, 1829 547.077 C 1817.813 540.765, 1788.177 526.234, 1778 522.071 C 1772.225 519.709, 1766.150 517.201, 1764.500 516.499 C 1759.670 514.442, 1734.276 506.106, 1726.055 503.878 C 1697.923 496.254, 1676.041 492.097, 1650 489.432 C 1625.058 486.878, 1600.345 488.417, 1571 494.350 C 1550.352 498.525, 1551.124 498.081, 1547.291 508 C 1540.868 524.619, 1528.873 547.313, 1517.690 564 C 1512.514 571.725, 1502.325 582.264, 1476.690 606.411 C 1461.148 621.050, 1458.115 622.563, 1461.870 613.803 C 1464.680 607.247, 1470.449 588.930, 1472.988 578.500 C 1476.407 564.452, 1480.524 552.596, 1486.703 539 C 1501.726 505.944, 1510.354 477.259, 1514.525 446.500 C 1516.954 428.587, 1516.731 391.708, 1514.087 374 C 1507.544 330.188, 1488.556 284.856, 1460.410 245.851 C 1437.914 214.675, 1407.913 181.071, 1386.042 162.549 C 1352.333 134.001, 1305.656 108.688, 1251 89.314 C 1229.061 81.537, 1210.659 76.310, 1179.500 69.003 C 1168.480 66.419, 1147.305 62.563, 1124.500 58.988 C 1109.530 56.641, 1076.798 53.317, 1055.688 51.999 C 1038.315 50.915, 991.991 50.018, 982.500 50.581 M 996 257.626 C 994.625 257.820, 989.675 258.467, 985 259.063 C 975.833 260.231, 953.387 264.521, 948.500 266.039 C 946.850 266.551, 941 268.339, 935.500 270.013 C 864.897 291.493, 817.063 336.839, 785.192 412.500 C 766.272 457.416, 757.754 496.362, 757.854 537.500 C 757.914 562.088, 760.088 581.356, 766.431 613.500 C 770.573 634.486, 771.894 639.953, 775.031 649.091 C 776.664 653.846, 778 659.146, 778 660.869 C 778 666.306, 782.651 669.372, 795 672.076 C 803.277 673.889, 860.633 673.967, 879 672.190 C 885.875 671.525, 900.050 670.313, 910.500 669.496 C 920.950 668.680, 933.775 667.566, 939 667.022 C 944.225 666.478, 955.700 665.350, 964.500 664.514 C 973.300 663.678, 984.325 662.554, 989 662.015 C 993.675 661.476, 1004.250 660.351, 1012.500 659.516 C 1020.750 658.680, 1031.100 657.561, 1035.500 657.029 C 1039.900 656.497, 1046.425 655.798, 1050 655.476 C 1053.575 655.154, 1059.875 654.491, 1064 654.004 C 1068.125 653.516, 1076 652.635, 1081.500 652.046 C 1087 651.458, 1095.775 650.506, 1101 649.931 C 1106.225 649.356, 1114.775 648.473, 1120 647.969 C 1153.059 644.779, 1162.631 643.866, 1172 643.009 C 1215.466 639.032, 1224.732 637.933, 1231.500 635.947 C 1242.126 632.829, 1244.482 627.059, 1245.461 601.756 C 1245.769 593.793, 1247.053 584.430, 1249.450 572.677 C 1255.596 542.540, 1255.962 539.589, 1255.982 520.068 C 1255.999 502.139, 1255.586 496.535, 1252.395 471.500 C 1245.615 418.294, 1232.270 377.956, 1212.032 349.500 C 1204.416 338.791, 1185.769 319.885, 1174.230 311.173 C 1144.125 288.442, 1109.693 271.619, 1076.500 263.421 C 1057.083 258.625, 1042.342 257.002, 1019.500 257.143 C 1007.950 257.214, 997.375 257.431, 996 257.626 M 610.185 1086.831 L 596.869 1092.500 597.503 1104.500 C 597.852 1111.100, 598.580 1120.550, 599.123 1125.500 C 599.665 1130.450, 600.293 1164.875, 600.518 1202 C 600.744 1239.125, 601.397 1280.300, 601.970 1293.500 C 602.543 1306.700, 603.474 1327.625, 604.040 1340 C 605.238 1366.247, 606.921 1419.443, 607.614 1453 C 607.881 1465.925, 608.300 1477.472, 608.546 1478.660 C 608.851 1480.132, 614.488 1484.495, 626.246 1492.359 C 641.923 1502.842, 658.490 1515.256, 688.493 1539 C 702.037 1549.718, 728.591 1569.811, 750.554 1585.960 C 786.694 1612.533, 806.272 1627.102, 826 1642.101 C 849.192 1659.734, 859.681 1667.303, 862.295 1668.293 C 863.282 1668.666, 864.854 1670.666, 865.788 1672.736 C 867.336 1676.170, 867.536 1685.571, 868.067 1780 C 868.387 1836.925, 868.929 1884.175, 869.271 1885 C 869.613 1885.825, 870.407 1909.675, 871.034 1938 C 871.662 1966.325, 872.342 1989.668, 872.545 1989.874 C 872.749 1990.080, 877.997 1986.216, 884.208 1981.288 C 912.836 1958.571, 1084.191 1837.625, 1148 1795.098 C 1190.927 1766.488, 1219.160 1748.588, 1260.229 1723.943 C 1300.553 1699.745, 1299.556 1700.336, 1315 1691.454 C 1322.425 1687.183, 1339.525 1677.076, 1353 1668.994 C 1374.650 1656.009, 1386.324 1648.734, 1413.736 1631.143 C 1417.716 1628.590, 1421.173 1625.979, 1421.420 1625.341 C 1421.666 1624.704, 1416.609 1619.542, 1410.184 1613.870 C 1400.729 1605.525, 1388.164 1594.174, 1364.397 1572.506 C 1350.698 1560.017, 1317.531 1529.399, 1299.411 1512.515 C 1285.782 1499.815, 1250.656 1467.605, 1240.961 1458.918 C 1208.139 1429.505, 1191.334 1414.036, 1183.765 1406.270 C 1178.961 1401.340, 1172.177 1394.786, 1168.689 1391.704 C 1161.855 1385.668, 1159.334 1380.530, 1160.634 1375.288 C 1163.605 1363.314, 1180.422 1336.742, 1209.866 1297.500 C 1234.054 1265.262, 1256.131 1238.373, 1302.641 1184.500 C 1366.098 1110.996, 1390.435 1082.102, 1389.594 1081.261 C 1389.121 1080.788, 1380.387 1083.746, 1378.500 1085.019 C 1377.950 1085.390, 1373 1087.393, 1367.500 1089.471 C 1362 1091.549, 1356.150 1093.840, 1354.500 1094.562 C 1352.850 1095.284, 1345.650 1097.974, 1338.500 1100.540 C 1288.448 1118.501, 1237.655 1132.912, 1192.500 1141.963 C 1175.920 1145.286, 1172.894 1145.854, 1163 1147.493 C 1157.775 1148.359, 1151.025 1149.489, 1148 1150.004 C 1142.896 1150.872, 1130.767 1152.453, 1110 1154.956 C 1082.437 1158.278, 1060.198 1159.325, 1016 1159.381 C 970.085 1159.440, 961.701 1159.048, 920 1154.888 C 888.543 1151.749, 872.484 1149.728, 838 1144.567 C 808.683 1140.180, 781.477 1135.367, 755.500 1129.971 C 725.769 1123.797, 682.790 1110.466, 660 1100.351 C 650.868 1096.298, 634.650 1087.818, 629.858 1084.590 C 626.926 1082.616, 624.296 1081.037, 624.013 1081.081 C 623.731 1081.126, 617.508 1083.713, 610.185 1086.831" stroke="none" fill="#050505" fill-rule="evenodd"/><path d="M 982.500 50.581 C 955.532 52.181, 941.476 53.205, 935.500 54.003 C 907.523 57.742, 890.179 60.780, 869.500 65.562 C 865.650 66.453, 860.925 67.547, 859 67.994 C 844.859 71.278, 798.973 85.132, 789.500 88.977 C 788.400 89.423, 785.250 90.546, 782.500 91.472 C 779.750 92.398, 776.600 93.517, 775.500 93.958 C 774.400 94.399, 771.475 95.551, 769 96.517 C 766.525 97.483, 762.592 99.112, 760.261 100.137 C 757.929 101.162, 755.767 102, 755.456 102 C 755.145 102, 752.777 102.955, 750.195 104.122 C 739.672 108.878, 730.413 113.141, 729 113.880 C 690.943 133.772, 661.121 153.906, 629 181.393 C 576.113 226.649, 539.142 273.655, 510.654 331.861 C 488.421 377.288, 481.297 405.221, 479.376 454.500 L 478.714 471.500 512.607 471.571 C 545.251 471.639, 554.645 472.188, 581.500 475.599 C 626 481.252, 672.249 496.812, 683.187 509.811 C 686.054 513.217, 688.553 518.781, 687.631 519.703 C 687.279 520.054, 685.981 519.395, 684.746 518.238 C 681.581 515.274, 675.157 512.753, 663 509.704 C 640.330 504.019, 625.887 501.289, 601.500 498.080 C 565.420 493.332, 492.042 493.296, 459 498.010 C 455.425 498.520, 448.900 499.437, 444.500 500.048 C 423.996 502.894, 387.894 511.214, 364 518.600 C 343.247 525.014, 316.268 534.277, 307.500 537.999 C 306.400 538.466, 300.775 540.713, 295 542.993 C 289.225 545.273, 282.700 547.952, 280.500 548.946 C 278.300 549.941, 273.014 552.201, 268.754 553.969 C 256.456 559.072, 226.722 574.005, 212 582.471 C 182.077 599.678, 161.167 615.657, 137.469 639.423 C 107.389 669.589, 84.633 701.852, 65.483 741.481 C 50.871 771.721, 41.079 801.054, 35.098 832.500 C 31.701 850.365, 31.081 855.228, 29.843 873.751 C 26.882 918.023, 34.568 957.655, 52.491 990.536 C 83.193 1046.860, 144.868 1091.031, 217 1108.355 C 234.959 1112.669, 244.213 1114.296, 267 1117.149 C 280.843 1118.882, 338.372 1118.909, 354 1117.190 C 387.327 1113.524, 420.381 1108.384, 438.750 1104.012 C 441.087 1103.455, 444.913 1102.559, 447.250 1102.020 C 471.257 1096.485, 505.047 1087.486, 520.500 1082.511 C 522.700 1081.803, 529.225 1079.782, 535 1078.021 C 540.775 1076.259, 554.050 1071.908, 564.500 1068.351 C 604.479 1054.742, 621.907 1049.089, 633.500 1045.969 C 640.100 1044.193, 652.700 1040.744, 661.500 1038.304 C 670.300 1035.864, 679.940 1033.208, 682.922 1032.402 C 690.697 1030.300, 715.182 1022.154, 717.236 1020.987 C 719.645 1019.618, 722 1019.753, 722 1021.259 C 722 1022.611, 721.215 1023.182, 713.500 1027.439 C 710.750 1028.957, 707.790 1030.829, 706.921 1031.599 C 706.053 1032.370, 705.041 1033, 704.674 1033 C 704.306 1033, 701.866 1034.522, 699.252 1036.383 C 693.597 1040.410, 656.134 1063.655, 650.705 1066.507 C 648.617 1067.603, 645.692 1069.480, 644.205 1070.679 L 641.500 1072.857 646.500 1075.052 C 656.346 1079.374, 659.579 1080.721, 665 1082.761 C 675.058 1086.545, 684.432 1089.753, 690.500 1091.486 C 698.032 1093.637, 702.796 1095.051, 706 1096.087 C 720.518 1100.782, 769.022 1110.410, 801 1114.945 C 834.592 1119.709, 845.383 1121.105, 886 1125.942 C 895.619 1127.088, 919.038 1129.263, 942 1131.143 C 964.910 1133.019, 1037.231 1132.729, 1062.500 1130.659 C 1107.407 1126.981, 1144.034 1121.501, 1190.500 1111.507 C 1224.810 1104.128, 1276.191 1089.013, 1319.500 1073.559 C 1333.469 1068.574, 1365.319 1056.150, 1373.500 1052.495 C 1376.250 1051.266, 1382.100 1048.773, 1386.500 1046.954 C 1390.900 1045.135, 1396.114 1042.590, 1398.086 1041.299 C 1400.058 1040.008, 1405.233 1037.584, 1409.586 1035.913 C 1413.939 1034.242, 1425.249 1028.837, 1434.721 1023.903 C 1444.193 1018.969, 1454.993 1013.790, 1458.721 1012.393 C 1468.484 1008.737, 1483.023 1001.450, 1486.406 998.518 C 1488.953 996.310, 1492 995.175, 1492 996.434 C 1492 997.328, 1486.507 1009.669, 1484.181 1014 C 1481.331 1019.306, 1472.263 1031.471, 1468.583 1034.924 C 1467.163 1036.258, 1466 1037.668, 1466 1038.058 C 1466 1038.872, 1465.046 1038.557, 1484 1044.002 C 1501.059 1048.902, 1510.667 1051.697, 1525 1055.927 C 1543.617 1061.422, 1545.406 1061.936, 1551.500 1063.548 C 1579.486 1070.947, 1594.341 1074.072, 1616.500 1077.221 C 1628.693 1078.954, 1677.412 1078.928, 1690 1077.183 C 1722.516 1072.674, 1748.157 1067.227, 1772.500 1059.660 C 1776.900 1058.292, 1783.650 1056.212, 1787.500 1055.039 C 1791.350 1053.866, 1795.400 1052.513, 1796.500 1052.032 C 1797.600 1051.552, 1804.125 1049.063, 1811 1046.502 C 1849.811 1032.042, 1893.961 1009.311, 1919.500 990.640 C 1940.207 975.501, 1958.364 958.292, 1969.235 943.500 C 1969.639 942.950, 1971.016 941.150, 1972.294 939.500 C 1978.205 931.871, 1987.973 914.736, 1992.208 904.565 C 1999.571 886.886, 2003.872 870.672, 2007.080 848.500 C 2008.575 838.165, 2008.555 803.752, 2007.048 793.470 C 2004.912 778.901, 2002.986 767.541, 2002.052 764 C 2001.544 762.075, 2000.382 757.575, 1999.469 754 C 1993.585 730.947, 1978.975 695.823, 1968.368 679.231 C 1966.516 676.332, 1965 673.778, 1965 673.554 C 1965 672.839, 1954.868 657.766, 1949.167 650 C 1921.438 612.226, 1876.981 574.149, 1829 547.077 C 1817.813 540.765, 1788.177 526.234, 1778 522.071 C 1772.225 519.709, 1766.150 517.201, 1764.500 516.499 C 1759.670 514.442, 1734.276 506.106, 1726.055 503.878 C 1697.923 496.254, 1676.041 492.097, 1650 489.432 C 1625.058 486.878, 1600.345 488.417, 1571 494.350 C 1550.352 498.525, 1551.124 498.081, 1547.291 508 C 1540.868 524.619, 1528.873 547.313, 1517.690 564 C 1512.514 571.725, 1502.325 582.264, 1476.690 606.411 C 1461.148 621.050, 1458.115 622.563, 1461.870 613.803 C 1464.680 607.247, 1470.449 588.930, 1472.988 578.500 C 1476.407 564.452, 1480.524 552.596, 1486.703 539 C 1501.726 505.944, 1510.354 477.259, 1514.525 446.500 C 1516.954 428.587, 1516.731 391.708, 1514.087 374 C 1507.544 330.188, 1488.556 284.856, 1460.410 245.851 C 1437.914 214.675, 1407.913 181.071, 1386.042 162.549 C 1352.333 134.001, 1305.656 108.688, 1251 89.314 C 1229.061 81.537, 1210.659 76.310, 1179.500 69.003 C 1168.480 66.419, 1147.305 62.563, 1124.500 58.988 C 1109.530 56.641, 1076.798 53.317, 1055.688 51.999 C 1038.315 50.915, 991.991 50.018, 982.500 50.581 M 996 257.626 C 994.625 257.820, 989.675 258.467, 985 259.063 C 975.833 260.231, 953.387 264.521, 948.500 266.039 C 946.850 266.551, 941 268.339, 935.500 270.013 C 864.897 291.493, 817.063 336.839, 785.192 412.500 C 766.272 457.416, 757.754 496.362, 757.854 537.500 C 757.914 562.088, 760.088 581.356, 766.431 613.500 C 770.573 634.486, 771.894 639.953, 775.031 649.091 C 776.664 653.846, 778 659.146, 778 660.869 C 778 666.306, 782.651 669.372, 795 672.076 C 803.277 673.889, 860.633 673.967, 879 672.190 C 885.875 671.525, 900.050 670.313, 910.500 669.496 C 920.950 668.680, 933.775 667.566, 939 667.022 C 944.225 666.478, 955.700 665.350, 964.500 664.514 C 973.300 663.678, 984.325 662.554, 989 662.015 C 993.675 661.476, 1004.250 660.351, 1012.500 659.516 C 1020.750 658.680, 1031.100 657.561, 1035.500 657.029 C 1039.900 656.497, 1046.425 655.798, 1050 655.476 C 1053.575 655.154, 1059.875 654.491, 1064 654.004 C 1068.125 653.516, 1076 652.635, 1081.500 652.046 C 1087 651.458, 1095.775 650.506, 1101 649.931 C 1106.225 649.356, 1114.775 648.473, 1120 647.969 C 1153.059 644.779, 1162.631 643.866, 1172 643.009 C 1215.466 639.032, 1224.732 637.933, 1231.500 635.947 C 1242.126 632.829, 1244.482 627.059, 1245.461 601.756 C 1245.769 593.793, 1247.053 584.430, 1249.450 572.677 C 1255.596 542.540, 1255.962 539.589, 1255.982 520.068 C 1255.999 502.139, 1255.586 496.535, 1252.395 471.500 C 1245.615 418.294, 1232.270 377.956, 1212.032 349.500 C 1204.416 338.791, 1185.769 319.885, 1174.230 311.173 C 1144.125 288.442, 1109.693 271.619, 1076.500 263.421 C 1057.083 258.625, 1042.342 257.002, 1019.500 257.143 C 1007.950 257.214, 997.375 257.431, 996 257.626" stroke="none" fill="#bbebfb" fill-rule="evenodd"/></svg>