<svg width="61" height="28" viewBox="0 0 61 28" fill="none" xmlns="http://www.w3.org/2000/svg">
<g clip-path="url(#clip0_2088_103)">
<path d="M56.5 27.5002H3.5C1.567 27.5002 0 25.9332 0 24.0002C0 22.0672 1.567 20.5002 3.5 20.5002H56.5C58.433 20.5002 60 22.0672 60 24.0002C60 25.9332 58.433 27.5002 56.5 27.5002Z" fill="white"/>
<path d="M56.5 17.5002H43.5C41.567 17.5002 40 15.9332 40 14.0002C40 12.0672 41.567 10.5002 43.5 10.5002H56.5C58.433 10.5002 60 12.0672 60 14.0002C60 15.9332 58.433 17.5002 56.5 17.5002Z" fill="white"/>
<path d="M15.5 17.5002H3.5C1.567 17.5002 0 15.9332 0 14.0002C0 12.0672 1.567 10.5002 3.5 10.5002H15.5C17.433 10.5002 19 12.0672 19 14.0002C19 15.9332 17.433 17.5002 15.5 17.5002Z" fill="white"/>
<path d="M3.5 4.00024L30.0003 23.5003" stroke="white" stroke-width="7" stroke-linecap="round"/>
<path d="M56.9999 3.50024L30.0015 23.5003" stroke="white" stroke-width="7" stroke-linecap="round"/>
</g>
<defs>
<clipPath id="clip0_2088_103">
<rect width="61" height="28" fill="white"/>
</clipPath>
</defs>
</svg>
